<svg width="973" height="708" viewBox="0 0 973 708" fill="none" xmlns="http://www.w3.org/2000/svg">
<path d="M753.4 689.619C754.194 591.047 755.463 432.703 755.463 409.268C755.463 374.883 713.538 271.894 640.2 271.894C559.856 271.894 520.153 384.199 467.563 384.199C419.362 384.199 415.561 354.473 355.894 354.473C317.016 354.473 237.021 415.163 237.021 477.205L290.269 689.571L753.4 689.619Z" fill="url(#paint0_linear)"/>
<path d="M766.623 636.567C767.416 537.995 768.686 379.65 768.686 356.215C768.686 321.831 726.76 218.842 653.422 218.842C573.079 218.842 533.375 331.147 480.786 331.147C432.584 331.147 428.783 301.421 369.117 301.421C330.238 301.421 250.243 362.11 250.243 424.153L303.491 636.519L766.623 636.567Z" fill="url(#paint1_linear)"/>
<path d="M760.093 583.515C760.887 484.943 762.156 326.598 762.156 303.163C762.156 268.779 720.231 165.79 646.893 165.79C566.549 165.79 526.845 278.095 474.256 278.095C426.054 278.095 422.254 248.369 362.587 248.369C323.708 248.369 243.714 309.058 243.714 371.101L296.961 583.467L760.093 583.515Z" fill="url(#paint2_linear)"/>
<path d="M375.95 622.709C375.252 624.566 368.463 649.024 367.15 650.195C365.838 651.365 329.079 668.252 329.079 668.252L331.573 673.844C331.573 673.844 370.094 662.945 372.089 661.98C374.084 661.016 389.27 649.207 391.586 644.245C393.901 639.283 378.61 622.64 375.95 622.709Z" fill="#FC7031"/>
<path d="M412.381 689.154C412.381 689.989 411.802 695.252 412.956 695.738C414.111 696.224 426.801 696.52 427.376 696.03C427.952 695.541 428.302 694.52 427.793 694.228C427.285 693.935 422.375 693.108 421.708 692.717C421.042 692.326 420.12 690.253 420.458 689.154" fill="#FC7031"/>
<path d="M532.49 650.184C532.49 651.018 531.911 656.282 533.065 656.768C534.22 657.254 546.911 657.549 547.486 657.06C548.061 656.571 548.411 655.55 547.902 655.257C547.394 654.965 542.484 654.138 541.818 653.747C541.151 653.356 540.23 651.283 540.567 650.184" fill="#FC7031"/>
<path d="M411.326 608.574C410.513 608.774 403.983 610.148 403.306 610.148C402.628 610.148 401.681 615.697 402.358 615.641C403.036 615.585 411.598 613.412 413.73 613.239C415.861 613.067 411.326 608.574 411.326 608.574Z" fill="#F8CDBA"/>
<path d="M535.479 576.495C534.666 576.695 528.136 578.07 527.459 578.07C526.781 578.07 525.834 583.618 526.512 583.562C527.189 583.506 535.751 581.333 537.883 581.161C540.015 580.988 535.479 576.495 535.479 576.495Z" fill="#F8CDBA"/>
<path d="M388.119 584.095C392.817 583.701 401.488 585.718 404.218 587.116C409.593 589.869 403.389 625.364 400.601 627.999C398.107 628.881 376.966 624.439 375.903 622.54C376.469 618.743 384.85 605.582 385.647 604.87C385.116 604.395 382.726 601.785 382.726 601.785C382.726 601.785 384.874 599.207 385.116 599.06C384.431 598.652 377.584 593.82 377.205 593.547C378.572 591.739 386.539 584.228 388.119 584.095Z" fill="#FC7031"/>
<path d="M395.079 614.802C394.708 614.007 383.305 602.29 382.894 601.819C383.516 601.059 384.546 599.892 385.392 599.018C382.137 596.931 378.643 594.563 377.386 593.607C377.362 593.63 377.352 593.656 377.328 593.682C376.759 594.28 371.689 600.949 371.689 601.887C371.689 602.825 387.207 616.1 389.144 616.75C391.082 617.399 395.45 615.599 395.079 614.802Z" fill="#F8CDBA"/>
<path d="M413.129 613.978C415.069 613.978 416.641 612.489 416.641 610.653C416.641 608.816 415.069 607.327 413.129 607.327C411.189 607.327 409.617 608.816 409.617 610.653C409.617 612.489 411.189 613.978 413.129 613.978Z" fill="#F8CDBA"/>
<path d="M400.699 628.156C400.699 628.156 411.591 646.913 413.257 650.813C414.924 654.713 418.982 689.392 418.982 689.392C418.982 689.392 413.556 689.955 412.097 689.392C410.637 688.83 404.587 663.602 401.251 658.431C396.172 650.572 368.585 635.916 375.648 622.708" fill="#FF905F"/>
<path d="M328.959 666.926C327.933 667.304 321.219 669.154 321.12 670.439C321.022 671.723 326.121 683.547 326.969 683.855C327.816 684.162 329.221 684.025 329.357 683.414C329.492 682.803 328.42 677.914 328.593 677.124C328.767 676.334 330.935 674.55 332.438 674.367" fill="#FC7031"/>
<path d="M465.322 630.785C464.296 631.163 457.582 633.013 457.483 634.298C457.385 635.583 462.484 647.406 463.332 647.714C464.179 648.022 465.584 647.884 465.72 647.273C465.856 646.662 464.783 641.773 464.957 640.983C465.13 640.193 467.298 638.41 468.801 638.227" fill="#FC7031"/>
<path d="M397.766 585.026C401.136 585.026 403.867 581.324 403.867 576.757C403.867 572.19 401.136 568.488 397.766 568.488C394.396 568.488 391.665 572.19 391.665 576.757C391.665 581.324 394.396 585.026 397.766 585.026Z" fill="#DC8E6C"/>
<path d="M387.142 573.348C387.142 570.799 388.392 569.19 389.408 568.679C391.37 567.681 392.189 568.126 394.165 567.349C396.305 566.517 398.141 564.089 400.646 564.089C402.987 564.089 402.776 565.27 404.364 565.619C405.3 565.823 410.619 564.738 410.619 567.794C410.619 572.5 404.734 572.882 403.371 573.485C403.167 572.943 402.929 572.412 402.659 571.893C401.587 572.874 397.705 573.556 397.078 573.776C395.626 574.308 394.933 576.325 394.933 577.642C394.933 578.96 393.589 578.965 393.252 578.965C390.148 578.965 387.142 577.198 387.142 573.348Z" fill="#FC7031"/>
<path d="M503.422 590.518C502.851 592.193 497.297 614.244 496.223 615.3C495.149 616.355 465.076 631.58 465.076 631.58L467.117 636.622C467.117 636.622 498.631 626.795 500.263 625.926C501.895 625.056 514.32 614.409 516.214 609.935C518.108 605.462 505.598 590.456 503.422 590.518Z" fill="#FF905F"/>
<path d="M513.484 555.91C517.354 555.555 524.495 557.371 526.744 558.63C531.172 561.108 526.062 593.061 523.765 595.432C521.711 596.227 504.297 592.228 503.422 590.518C503.888 587.1 510.791 575.252 511.447 574.611C511.01 574.184 509.041 571.834 509.041 571.834C509.041 571.834 510.811 569.514 511.01 569.382C510.446 569.014 504.806 564.665 504.494 564.419C505.62 562.791 512.182 556.03 513.484 555.91Z" fill="#FF905F"/>
<path d="M519.038 583.661C518.734 582.936 509.387 572.259 509.05 571.83C509.56 571.138 510.404 570.074 511.098 569.277C508.429 567.375 505.566 565.218 504.535 564.346C504.516 564.368 504.507 564.391 504.487 564.415C504.021 564.959 499.865 571.037 499.865 571.892C499.865 572.746 512.585 584.844 514.173 585.436C515.761 586.028 519.342 584.387 519.038 583.661Z" fill="#F8CDBA"/>
<path d="M537.959 581.086C539.626 581.086 540.978 579.766 540.978 578.138C540.978 576.509 539.626 575.189 537.959 575.189C536.292 575.189 534.94 576.509 534.94 578.138C534.94 579.766 536.292 581.086 537.959 581.086Z" fill="#F8CDBA"/>
<path d="M517.543 589.411C519.21 589.411 520.562 588.091 520.562 586.463C520.562 584.835 519.21 583.515 517.543 583.515C515.876 583.515 514.525 584.835 514.525 586.463C514.525 588.091 515.876 589.411 517.543 589.411Z" fill="#F8CDBA"/>
<path d="M393.646 619.773C395.313 619.773 396.665 618.453 396.665 616.825C396.665 615.196 395.313 613.876 393.646 613.876C391.979 613.876 390.628 615.196 390.628 616.825C390.628 618.453 391.979 619.773 393.646 619.773Z" fill="#F8CDBA"/>
<path d="M523.765 595.432C523.765 595.432 532.613 612.385 533.967 615.91C535.321 619.435 538.618 650.781 538.618 650.781C538.618 650.781 534.21 651.29 533.024 650.781C531.839 650.273 526.924 627.47 524.213 622.796C520.088 615.692 497.678 602.445 503.415 590.507" fill="#FC7031"/>
<path d="M522.071 558.539C525.422 558.539 528.138 554.118 528.138 548.663C528.138 543.209 525.422 538.788 522.071 538.788C518.72 538.788 516.004 543.209 516.004 548.663C516.004 554.118 518.72 558.539 522.071 558.539Z" fill="#DC8E6C"/>
<path d="M508.833 545.271C508.833 542.722 510.083 541.114 511.1 540.602C513.061 539.604 513.881 540.049 515.857 539.272C517.997 538.44 519.832 536.012 522.337 536.012C524.679 536.012 524.468 537.193 526.055 537.542C526.992 537.746 532.311 536.661 532.311 539.717C532.311 544.423 526.425 544.805 525.063 545.408C524.858 544.866 524.621 544.335 524.351 543.816C523.279 544.797 519.397 545.479 518.769 545.699C517.318 546.231 516.625 548.248 516.625 549.566C516.625 550.883 515.281 550.888 514.944 550.888C511.839 550.888 508.833 549.121 508.833 545.271Z" fill="#FC7031"/>
<path d="M611.705 573.067L585.809 606.05L563.295 629.47C563.295 630.413 567.388 634.291 568.015 634.291C569.552 633.661 628.195 590.926 628.195 590.926L611.705 573.067Z" fill="#FC7031"/>
<path d="M617.637 553.628C616.579 553.726 604.638 553.994 604.638 553.994C604.638 553.994 589.085 556.135 586.961 555.755C585.664 555.524 584.308 561.605 585.941 560.848C588.463 559.662 605.06 560.096 606.331 560.149C607.601 560.201 618.513 561.115 618.906 561.195C619.299 561.275 617.637 553.628 617.637 553.628Z" fill="#F8CDBA"/>
<path d="M642.164 569.957C642.832 570.863 652.086 575.652 653.329 575.553C654.571 575.454 661.006 560.437 662.431 558.98C662.739 558.671 658.91 555.805 658.833 556.665C658.699 558.197 651.533 567.729 651.533 567.729L646.783 565.012L642.164 569.957Z" fill="#F8CDBA"/>
<path d="M637.699 559.821C640.152 557.198 647.789 563.216 647.98 564.587C648.264 566.618 642.766 570.964 641.45 570.862C640.134 570.76 635.361 562.326 637.699 559.821Z" fill="#FFC78E"/>
<path d="M637.284 554.715C647.428 559.817 636.478 578.155 631.515 579.88C628.858 580.806 613.529 573.707 613.364 571.382C613.199 569.056 625.458 548.767 637.284 554.715Z" fill="#FC7031"/>
<path d="M631.689 556.281C632.824 562.375 619.158 562.792 618.289 562.221C617.42 561.65 616.343 554.435 617.42 553.193C619.855 552.622 630.978 552.457 631.689 556.281Z" fill="#FFE4AD"/>
<path d="M613.363 571.381C594.991 583.843 622.729 598.234 638.567 592.443C638.236 594.552 635.695 614.757 635.695 614.757L642.008 616.557C642.008 616.557 657.488 588.007 654.738 581.72C653.84 579.662 622.984 574.022 617.134 574.585C615.736 573.718 613.464 572.343 613.363 571.381Z" fill="#FF905F"/>
<path d="M636.308 614.619L633.115 619.639L645.041 628.383L646.657 626.539L641.387 616.395L636.308 614.619Z" fill="#FC7031"/>
<path d="M564.115 630.399L559.415 633.641L562.445 645.658L565.221 645.155L567.599 633.692L564.115 630.399Z" fill="#FC7031"/>
<path d="M664.186 557.414C665.021 555.576 664.521 553.665 663.07 553.145C661.619 552.625 659.766 553.694 658.931 555.531C658.096 557.369 658.596 559.28 660.047 559.8C661.498 560.32 663.351 559.251 664.186 557.414Z" fill="#F8CDBA"/>
<path d="M585.108 561.07C587.303 561.07 589.083 559.7 589.083 558.011C589.083 556.322 587.303 554.952 585.108 554.952C582.913 554.952 581.133 556.322 581.133 558.011C581.133 559.7 582.913 561.07 585.108 561.07Z" fill="#F8CDBA"/>
<path d="M650.751 548.75C651.778 544.966 649.766 541.289 646.257 540.538C642.748 539.788 639.071 542.247 638.044 546.031C637.017 549.815 639.029 553.491 642.538 554.242C646.047 554.993 649.724 552.534 650.751 548.75Z" fill="#E49D75"/>
<path d="M650.861 545.289C650.357 542.931 648.665 541.053 646.255 540.539C642.745 539.787 639.067 542.247 638.04 546.03C638.019 546.111 638 546.193 637.981 546.273C640.887 547.218 647.749 546.837 650.861 545.289Z" fill="#FC7031"/>
<path d="M638.596 547.112C638.431 548.136 634.977 553.66 633.698 554.481C633.614 555.829 637.15 558.055 638.836 557.677C639.522 556.133 640.697 554.01 641.726 553.143C642.755 552.275 638.596 547.112 638.596 547.112Z" fill="#E49D75"/>
<path d="M644.841 540.654C644.841 537.492 640.913 535.523 638.607 535.523C631.955 535.523 632.111 544.71 623.579 544.71C622.817 544.71 622.475 544.594 621.582 544.77C621.582 547.656 625.598 550.159 628.237 550.159C635.553 550.159 636.662 540.9 641.183 540.9C641.878 540.9 642.796 541.376 642.796 541.376L644.841 540.654Z" fill="#FC7031"/>
<path d="M641.416 547.507C641.819 546.608 641.423 545.624 640.531 545.309C639.639 544.994 638.589 545.468 638.187 546.366C637.784 547.265 638.18 548.249 639.072 548.564C639.964 548.879 641.014 548.406 641.416 547.507Z" fill="#E49D75"/>
<g filter="url(#filter0_bd)">
<path d="M380.608 427.595C380.435 430.351 379.436 432.528 377.612 434.128C375.799 435.727 373.392 436.541 370.392 436.569C367.111 436.601 364.517 435.524 362.609 433.338C360.713 431.142 359.747 428.115 359.71 424.26L359.696 422.696C359.672 420.235 360.085 418.063 360.935 416.18C361.784 414.297 363.007 412.849 364.603 411.838C366.21 410.815 368.08 410.293 370.213 410.273C373.166 410.245 375.552 411.013 377.372 412.578C379.191 414.143 380.255 416.354 380.564 419.21L375.291 419.26C375.146 417.609 374.672 416.418 373.868 415.688C373.076 414.945 371.871 414.582 370.254 414.597C368.496 414.614 367.184 415.259 366.317 416.533C365.462 417.795 365.035 419.75 365.037 422.399L365.055 424.332C365.081 427.098 365.517 429.115 366.361 430.385C367.217 431.654 368.547 432.28 370.351 432.263C371.98 432.247 373.19 431.867 373.979 431.121C374.781 430.363 375.233 429.205 375.335 427.645L380.608 427.595ZM398.55 430.677L389.305 430.765L387.597 436.054L381.99 436.108L391.274 410.425L396.16 410.378L405.983 435.88L400.376 435.933L398.55 430.677ZM390.688 426.48L397.086 426.419L393.779 416.87L390.688 426.48ZM413.607 431.571L424.803 431.465L424.844 435.701L408.374 435.857L408.131 410.265L413.404 410.215L413.607 431.571ZM433.492 435.619L428.218 435.669L427.975 410.076L433.249 410.026L433.492 435.619ZM451.603 428.732C451.593 427.736 451.235 426.977 450.526 426.457C449.818 425.924 448.547 425.374 446.714 424.805C444.88 424.225 443.427 423.653 442.355 423.089C439.434 421.546 437.961 419.445 437.936 416.785C437.923 415.402 438.298 414.168 439.061 413.082C439.836 411.985 440.947 411.125 442.394 410.502C443.853 409.879 445.491 409.558 447.307 409.541C449.135 409.524 450.767 409.842 452.203 410.497C453.639 411.139 454.755 412.06 455.552 413.26C456.36 414.459 456.771 415.827 456.786 417.362L451.513 417.412C451.502 416.24 451.124 415.335 450.38 414.698C449.635 414.048 448.595 413.73 447.259 413.743C445.97 413.755 444.971 414.04 444.261 414.598C443.552 415.143 443.201 415.862 443.209 416.752C443.217 417.584 443.64 418.277 444.477 418.832C445.326 419.386 446.568 419.902 448.201 420.379C451.209 421.253 453.406 422.351 454.789 423.674C456.173 424.997 456.874 426.654 456.893 428.646C456.914 430.861 456.093 432.609 454.429 433.891C452.765 435.16 450.516 435.809 447.68 435.836C445.711 435.854 443.915 435.514 442.291 434.814C440.667 434.103 439.421 433.125 438.554 431.879C437.698 430.633 437.263 429.184 437.247 427.532L442.538 427.482C442.565 430.306 444.265 431.702 447.64 431.67C448.894 431.658 449.87 431.397 450.568 430.886C451.267 430.364 451.611 429.646 451.603 428.732ZM479.605 413.858L471.766 413.932L471.968 435.253L466.695 435.303L466.493 413.982L458.759 414.056L458.718 409.784L479.565 409.586L479.605 413.858ZM503.66 434.953L498.387 435.003L498.283 424.034L488 424.132L488.104 435.1L482.831 435.15L482.588 409.558L487.861 409.508L487.96 419.878L498.243 419.781L498.144 409.41L503.417 409.36L503.66 434.953ZM523.576 423.671L513.451 423.767L513.516 430.622L525.398 430.51L525.439 434.746L508.283 434.909L508.04 409.316L525.16 409.153L525.201 413.425L513.354 413.537L513.412 419.637L523.536 419.54L523.576 423.671ZM549.344 434.519L544.071 434.569L533.646 417.827L533.805 434.666L528.532 434.716L528.289 409.124L533.562 409.074L544.005 425.85L543.845 408.976L549.101 408.926L549.344 434.519ZM559.556 434.422L554.283 434.472L554.04 408.879L559.313 408.829L559.556 434.422ZM584.47 425.659C584.297 428.415 583.298 430.593 581.474 432.192C579.66 433.791 577.254 434.605 574.254 434.634C570.973 434.665 568.379 433.588 566.471 431.403C564.575 429.206 563.609 426.18 563.572 422.325L563.558 420.76C563.534 418.299 563.947 416.127 564.796 414.244C565.646 412.361 566.868 410.914 568.464 409.903C570.072 408.879 571.942 408.358 574.075 408.337C577.028 408.309 579.414 409.078 581.234 410.643C583.053 412.207 584.117 414.418 584.426 417.275L579.153 417.325C579.008 415.674 578.534 414.483 577.73 413.752C576.938 413.01 575.733 412.646 574.116 412.662C572.358 412.678 571.046 413.324 570.179 414.597C569.324 415.859 568.897 417.815 568.899 420.463L568.917 422.397C568.943 425.162 569.378 427.18 570.223 428.449C571.078 429.718 572.409 430.345 574.213 430.327C575.842 430.312 577.051 429.931 577.841 429.185C578.643 428.428 579.095 427.269 579.197 425.71L584.47 425.659ZM601.221 427.311C601.212 426.315 600.853 425.557 600.145 425.036C599.436 424.504 598.166 423.953 596.332 423.385C594.498 422.804 593.045 422.232 591.974 421.668C589.053 420.126 587.58 418.024 587.554 415.364C587.541 413.981 587.916 412.747 588.679 411.662C589.454 410.565 590.565 409.704 592.012 409.081C593.471 408.458 595.109 408.138 596.925 408.121C598.753 408.103 600.385 408.422 601.821 409.076C603.257 409.719 604.373 410.64 605.17 411.839C605.978 413.039 606.39 414.406 606.404 415.941L601.131 415.991C601.12 414.819 600.742 413.915 599.998 413.277C599.253 412.628 598.213 412.31 596.877 412.322C595.588 412.335 594.589 412.619 593.879 413.177C593.17 413.723 592.819 414.441 592.828 415.332C592.836 416.164 593.258 416.857 594.095 417.411C594.945 417.966 596.186 418.482 597.819 418.958C600.828 419.832 603.024 420.93 604.408 422.253C605.791 423.576 606.493 425.234 606.511 427.226C606.532 429.44 605.711 431.189 604.047 432.47C602.384 433.74 600.134 434.388 597.298 434.415C595.329 434.434 593.533 434.093 591.909 433.394C590.285 432.683 589.04 431.704 588.172 430.459C587.317 429.213 586.881 427.764 586.865 426.111L592.156 426.061C592.183 428.885 593.884 430.281 597.259 430.249C598.512 430.237 599.488 429.976 600.187 429.466C600.885 428.943 601.23 428.225 601.221 427.311ZM624.313 424.789L624.399 433.806L619.126 433.856L618.883 408.264L628.867 408.169C630.788 408.151 632.479 408.486 633.939 409.175C635.41 409.865 636.545 410.856 637.342 412.149C638.14 413.431 638.546 414.898 638.562 416.55C638.586 419.058 637.743 421.046 636.034 422.516C634.337 423.973 631.971 424.716 628.936 424.745L624.313 424.789ZM624.273 420.518L628.984 420.473C630.378 420.46 631.435 420.122 632.156 419.458C632.888 418.795 633.248 417.854 633.236 416.636C633.224 415.382 632.846 414.372 632.1 413.605C631.355 412.839 630.331 412.45 629.03 412.439L624.197 412.485L624.273 420.518ZM653.633 428.255L644.387 428.343L642.679 433.633L637.072 433.686L646.356 408.003L651.243 407.956L661.065 433.458L655.458 433.511L653.633 428.255ZM645.77 424.058L652.168 423.997L648.861 414.448L645.77 424.058ZM672.841 423.977L668.64 424.017L668.729 433.385L663.456 433.435L663.213 407.843L672.722 407.752C675.745 407.724 678.084 408.375 679.737 409.707C681.39 411.039 682.229 412.936 682.252 415.397C682.269 417.143 681.902 418.605 681.151 419.784C680.412 420.952 679.279 421.888 677.75 422.594L683.386 433L683.388 433.246L677.729 433.3L672.841 423.977ZM668.599 419.745L672.853 419.705C674.177 419.692 675.2 419.349 675.92 418.674C676.64 417.987 676.994 417.052 676.983 415.869C676.972 414.662 676.617 413.716 675.919 413.031C675.233 412.346 674.181 412.01 672.763 412.024L668.527 412.064L668.599 419.745ZM694.365 422.876L691.651 425.855L691.72 433.167L686.447 433.217L686.204 407.624L691.477 407.574L691.587 419.175L693.877 415.972L700.319 407.49L706.805 407.429L697.825 418.888L707.311 433.019L701.036 433.079L694.365 422.876Z" fill="#FC844F"/>
</g>
<path d="M789.254 542.379L823.615 476.431M789.254 671.337L809.985 631.017M789.254 455.047L823.615 389.099" stroke="#FEDEA8" stroke-width="3" stroke-miterlimit="10" stroke-linecap="round"/>
<path d="M116.911 221.807L0 704.967H233.822L116.911 221.807Z" fill="#FC844F"/>
<path d="M202.649 221.781L85.7374 704.94H319.56L202.649 221.781Z" fill="#FC844F"/>
<path d="M202.578 224.066L202.794 704.474" stroke="#FFEAB6" stroke-width="4" stroke-miterlimit="10" stroke-linecap="round"/>
<path d="M116.96 223.25L112.248 703.637" stroke="#FFEAB6" stroke-width="4" stroke-miterlimit="10" stroke-linecap="round"/>
<path d="M202.794 704.963L230.941 650.22" stroke="#FEDEA8" stroke-width="5" stroke-miterlimit="10" stroke-linecap="round"/>
<path d="M202.861 613.907L231.008 559.164M113.461 588.308L141.609 533.565" stroke="#FEDEA8" stroke-width="5" stroke-miterlimit="10" stroke-linecap="round"/>
<path d="M113.45 702.573L141.597 647.83M113.45 589.065L85.3027 534.322" stroke="#FEDEA8" stroke-width="5" stroke-miterlimit="10" stroke-linecap="round"/>
<path d="M202.861 523.799L216.445 496.264L231.008 469.056M114.429 498.201L128.503 470.829L142.577 443.457" stroke="#FEDEA8" stroke-width="5" stroke-miterlimit="10" stroke-linecap="round"/>
<path d="M113.521 497.355L99.9367 469.82L85.3733 442.612" stroke="#FEDEA8" stroke-width="5" stroke-miterlimit="10" stroke-linecap="round"/>
<path d="M202.794 426.594L230.941 371.85" stroke="#FEDEA8" stroke-width="5" stroke-miterlimit="10" stroke-linecap="round"/>
<path d="M202.794 704.963L174.647 650.22" stroke="#FEDEA8" stroke-width="5" stroke-miterlimit="10" stroke-linecap="round"/>
<path d="M787.365 604.795L759.218 550.052" stroke="#FEDEA8" stroke-width="3" stroke-miterlimit="10" stroke-linecap="round"/>
<path d="M202.496 426.562L176.278 375.465M112.116 701.983L83.969 647.239M789.417 495.775L761.27 441.032M202.956 524.015L174.809 469.494M202.496 610.613L174.35 555.869" stroke="#FEDEA8" stroke-width="5" stroke-miterlimit="10" stroke-linecap="round"/>
<circle cx="407.033" cy="191.826" r="0.244856" fill="#C4C4C4"/>
<circle cx="411.603" cy="191.99" r="0.244856" fill="#C4C4C4"/>
<path d="M799.047 122.519C801.247 113.512 800.154 104.013 795.967 95.7445C791.781 87.4762 784.778 80.9865 776.229 77.4528C767.68 73.919 758.151 73.5752 749.37 76.4838C740.59 79.3924 733.14 85.3607 728.372 93.306C723.702 91.19 718.577 90.2814 713.466 90.6634C708.355 91.0454 703.421 92.7057 699.114 95.4927C694.808 98.2796 691.267 102.104 688.814 106.617C686.361 111.13 685.076 116.188 685.074 121.328C685.074 121.73 685.074 122.149 685.074 122.519H799.047Z" fill="#FCA883"/>
<path d="M260.454 158.599C258.254 149.622 259.347 140.155 263.533 131.915C267.72 123.675 274.723 117.207 283.272 113.686C291.821 110.164 301.35 109.821 310.13 112.72C318.91 115.619 326.36 121.567 331.128 129.485C335.799 127.369 340.925 126.459 346.039 126.836C351.152 127.214 356.089 128.868 360.398 131.647C364.706 134.425 368.248 138.24 370.699 142.741C373.15 147.243 374.431 152.287 374.426 157.411C374.426 157.804 374.426 158.23 374.426 158.599H260.454Z" fill="#FCA883"/>
<path d="M442.972 47.8286C440.772 38.8522 441.865 29.3852 446.052 21.145C450.238 12.9048 457.241 6.4372 465.79 2.91546C474.339 -0.606281 483.868 -0.948867 492.649 1.94984C501.429 4.84854 508.879 10.7965 513.647 18.7148C518.317 16.5992 523.444 15.6885 528.557 16.0662C533.671 16.4438 538.608 18.0978 542.916 20.8766C547.224 23.6553 550.766 27.47 553.217 31.9713C555.668 36.4726 556.95 41.5165 556.945 46.6411C556.945 47.0342 556.945 47.4601 556.945 47.8286H442.972Z" fill="#FCA883"/>
<path d="M796.814 704.963H972.08V527.966C972.032 507.033 965.519 486.976 953.964 472.174C942.41 457.372 926.752 449.03 910.411 448.968C907.089 448.97 903.773 449.315 900.494 449.998V246.312C900.494 231.971 896.047 218.218 888.132 208.077C880.217 197.935 869.481 192.237 858.286 192.234C847.09 192.234 836.352 197.932 828.435 208.073C820.518 218.215 816.07 231.97 816.07 246.312V289.913C809.719 287.14 803.054 285.725 796.344 285.724C780.001 285.785 764.342 294.129 752.787 308.933C741.232 323.737 734.72 343.797 734.674 364.731V509.917H707.815C696.652 509.961 685.955 515.661 678.061 525.773C670.167 535.885 665.717 549.588 665.683 563.889V689.588C665.684 694.795 666.277 699.975 667.443 704.963" fill="#FC844F"/>
<path d="M859.609 603.757C960.327 603.757 960.327 558.658 960.327 490.47" stroke="#FEC48F" stroke-width="5" stroke-linecap="round" stroke-linejoin="round"/>
<path d="M858.793 507.446L777.99 419.298" stroke="#FEC48F" stroke-width="5" stroke-linecap="round" stroke-linejoin="round"/>
<path d="M860.425 399.22L779.623 311.071" stroke="#FEC48F" stroke-width="5" stroke-linecap="round" stroke-linejoin="round"/>
<path d="M858.793 666.766L777.99 578.618" stroke="#FEC48F" stroke-width="5" stroke-linecap="round" stroke-linejoin="round"/>
<path d="M860.381 703.671L858.793 195.336" stroke="#FEC48F" stroke-width="5" stroke-linecap="round" stroke-linejoin="round"/>
<defs>
<filter id="filter0_bd" x="355.695" y="403.429" width="355.617" height="41.1412" filterUnits="userSpaceOnUse" color-interpolation-filters="sRGB">
<feFlood flood-opacity="0" result="BackgroundImageFix"/>
<feGaussianBlur in="BackgroundImage" stdDeviation="2"/>
<feComposite in2="SourceAlpha" operator="in" result="effect1_backgroundBlur"/>
<feColorMatrix in="SourceAlpha" type="matrix" values="0 0 0 0 0 0 0 0 0 0 0 0 0 0 0 0 0 0 127 0"/>
<feOffset dy="4"/>
<feGaussianBlur stdDeviation="2"/>
<feColorMatrix type="matrix" values="0 0 0 0 0 0 0 0 0 0 0 0 0 0 0 0 0 0 0.25 0"/>
<feBlend mode="normal" in2="effect1_backgroundBlur" result="effect2_dropShadow"/>
<feBlend mode="normal" in="SourceGraphic" in2="effect2_dropShadow" result="shape"/>
</filter>
<linearGradient id="paint0_linear" x1="496.242" y1="271.894" x2="496.242" y2="689.619" gradientUnits="userSpaceOnUse">
<stop stop-color="#FC7031"/>
<stop offset="0.0001" stop-color="#FC8C5A" stop-opacity="0.802083"/>
<stop offset="1" stop-color="white" stop-opacity="0"/>
</linearGradient>
<linearGradient id="paint1_linear" x1="509.464" y1="218.842" x2="509.464" y2="636.567" gradientUnits="userSpaceOnUse">
<stop stop-color="#FC7031"/>
<stop offset="0.0001" stop-color="#FC8C5A" stop-opacity="0.802083"/>
<stop offset="1" stop-color="white" stop-opacity="0"/>
</linearGradient>
<linearGradient id="paint2_linear" x1="502.445" y1="165.79" x2="502.445" y2="583.515" gradientUnits="userSpaceOnUse">
<stop stop-color="#FC7031"/>
<stop offset="0.0001" stop-color="#FC8C5A" stop-opacity="0.802083"/>
<stop offset="1" stop-color="white" stop-opacity="0"/>
</linearGradient>
</defs>
</svg>
