<svg width="973" height="708" viewBox="0 0 973 708" fill="none" xmlns="http://www.w3.org/2000/svg">
<path d="M750.379 597.725C751.173 499.152 752.442 340.808 752.442 317.373C752.442 282.989 710.517 180 637.179 180C556.835 180 517.132 292.305 464.542 292.305C416.341 292.305 412.54 262.579 352.873 262.579C313.995 262.579 234 323.268 234 385.311L287.248 597.677L750.379 597.725Z" fill="url(#paint0_linear)"/>
<path d="M375.95 622.709C375.252 624.566 368.463 649.024 367.15 650.195C365.838 651.365 329.079 668.252 329.079 668.252L331.573 673.844C331.573 673.844 370.094 662.945 372.089 661.98C374.084 661.016 389.27 649.207 391.586 644.245C393.901 639.283 378.61 622.64 375.95 622.709Z" fill="#FC7031"/>
<path d="M412.381 689.154C412.381 689.989 411.802 695.252 412.956 695.738C414.111 696.224 426.801 696.52 427.376 696.03C427.952 695.541 428.302 694.52 427.793 694.228C427.285 693.935 422.375 693.108 421.708 692.717C421.042 692.326 420.12 690.253 420.458 689.154" fill="#FC7031"/>
<path d="M532.49 650.184C532.49 651.018 531.911 656.282 533.065 656.768C534.22 657.254 546.911 657.549 547.486 657.06C548.061 656.571 548.411 655.55 547.902 655.257C547.394 654.965 542.484 654.138 541.818 653.747C541.151 653.356 540.23 651.283 540.567 650.184" fill="#FC7031"/>
<path d="M411.326 608.574C410.513 608.774 403.983 610.148 403.306 610.148C402.628 610.148 401.681 615.697 402.358 615.641C403.036 615.585 411.598 613.412 413.73 613.239C415.861 613.067 411.326 608.574 411.326 608.574Z" fill="#F8CDBA"/>
<path d="M535.479 576.495C534.666 576.695 528.136 578.07 527.459 578.07C526.781 578.07 525.834 583.618 526.512 583.562C527.189 583.506 535.751 581.333 537.883 581.161C540.015 580.988 535.479 576.495 535.479 576.495Z" fill="#F8CDBA"/>
<path d="M388.119 584.095C392.817 583.701 401.488 585.718 404.218 587.116C409.593 589.869 403.389 625.364 400.601 627.999C398.107 628.881 376.966 624.439 375.903 622.54C376.469 618.743 384.85 605.582 385.647 604.87C385.116 604.395 382.726 601.785 382.726 601.785C382.726 601.785 384.874 599.207 385.116 599.06C384.431 598.652 377.584 593.82 377.205 593.547C378.572 591.739 386.539 584.228 388.119 584.095Z" fill="#FC7031"/>
<path d="M395.079 614.802C394.708 614.007 383.305 602.29 382.894 601.819C383.516 601.059 384.546 599.892 385.392 599.018C382.137 596.931 378.643 594.563 377.386 593.607C377.362 593.63 377.352 593.656 377.328 593.682C376.759 594.28 371.689 600.949 371.689 601.887C371.689 602.825 387.207 616.1 389.144 616.75C391.082 617.399 395.45 615.599 395.079 614.802Z" fill="#F8CDBA"/>
<path d="M413.129 613.978C415.069 613.978 416.641 612.489 416.641 610.653C416.641 608.816 415.069 607.327 413.129 607.327C411.189 607.327 409.617 608.816 409.617 610.653C409.617 612.489 411.189 613.978 413.129 613.978Z" fill="#F8CDBA"/>
<path d="M400.699 628.156C400.699 628.156 411.591 646.913 413.257 650.813C414.924 654.713 418.982 689.392 418.982 689.392C418.982 689.392 413.556 689.955 412.097 689.392C410.637 688.83 404.587 663.602 401.251 658.431C396.172 650.572 368.585 635.916 375.648 622.708" fill="#FF905F"/>
<path d="M328.959 666.926C327.933 667.304 321.219 669.154 321.12 670.439C321.022 671.723 326.121 683.547 326.969 683.855C327.816 684.162 329.221 684.025 329.357 683.414C329.492 682.803 328.42 677.914 328.593 677.124C328.767 676.334 330.935 674.55 332.438 674.367" fill="#FC7031"/>
<path d="M465.322 630.785C464.296 631.163 457.582 633.013 457.483 634.298C457.385 635.583 462.484 647.406 463.332 647.714C464.179 648.022 465.584 647.884 465.72 647.273C465.856 646.662 464.783 641.773 464.957 640.983C465.13 640.193 467.298 638.41 468.801 638.227" fill="#FC7031"/>
<path d="M397.766 585.026C401.136 585.026 403.867 581.324 403.867 576.757C403.867 572.19 401.136 568.488 397.766 568.488C394.396 568.488 391.665 572.19 391.665 576.757C391.665 581.324 394.396 585.026 397.766 585.026Z" fill="#DC8E6C"/>
<path d="M387.142 573.348C387.142 570.799 388.392 569.19 389.408 568.679C391.37 567.681 392.189 568.126 394.165 567.349C396.305 566.517 398.141 564.089 400.646 564.089C402.987 564.089 402.776 565.27 404.364 565.619C405.3 565.823 410.619 564.738 410.619 567.794C410.619 572.5 404.734 572.882 403.371 573.485C403.167 572.943 402.929 572.412 402.659 571.893C401.587 572.874 397.705 573.556 397.078 573.776C395.626 574.308 394.933 576.325 394.933 577.642C394.933 578.96 393.589 578.965 393.252 578.965C390.148 578.965 387.142 577.198 387.142 573.348Z" fill="#FC7031"/>
<path d="M503.422 590.518C502.851 592.193 497.297 614.244 496.223 615.3C495.149 616.355 465.076 631.58 465.076 631.58L467.117 636.622C467.117 636.622 498.631 626.795 500.263 625.926C501.895 625.056 514.32 614.409 516.214 609.935C518.108 605.462 505.598 590.456 503.422 590.518Z" fill="#FF905F"/>
<path d="M513.484 555.91C517.354 555.555 524.495 557.371 526.744 558.63C531.172 561.108 526.062 593.061 523.765 595.432C521.711 596.227 504.297 592.228 503.422 590.518C503.888 587.1 510.791 575.252 511.447 574.611C511.01 574.184 509.041 571.834 509.041 571.834C509.041 571.834 510.811 569.514 511.01 569.382C510.446 569.014 504.806 564.665 504.494 564.419C505.62 562.791 512.182 556.03 513.484 555.91Z" fill="#FF905F"/>
<path d="M519.038 583.661C518.734 582.936 509.387 572.259 509.05 571.83C509.56 571.138 510.404 570.074 511.098 569.277C508.429 567.375 505.566 565.218 504.535 564.346C504.516 564.368 504.507 564.391 504.487 564.415C504.021 564.959 499.865 571.037 499.865 571.892C499.865 572.746 512.585 584.844 514.173 585.436C515.761 586.028 519.342 584.387 519.038 583.661Z" fill="#F8CDBA"/>
<path d="M537.959 581.086C539.626 581.086 540.978 579.766 540.978 578.138C540.978 576.509 539.626 575.189 537.959 575.189C536.292 575.189 534.94 576.509 534.94 578.138C534.94 579.766 536.292 581.086 537.959 581.086Z" fill="#F8CDBA"/>
<path d="M517.543 589.411C519.21 589.411 520.562 588.091 520.562 586.463C520.562 584.835 519.21 583.515 517.543 583.515C515.876 583.515 514.525 584.835 514.525 586.463C514.525 588.091 515.876 589.411 517.543 589.411Z" fill="#F8CDBA"/>
<path d="M393.646 619.773C395.313 619.773 396.665 618.453 396.665 616.825C396.665 615.196 395.313 613.876 393.646 613.876C391.979 613.876 390.628 615.196 390.628 616.825C390.628 618.453 391.979 619.773 393.646 619.773Z" fill="#F8CDBA"/>
<path d="M523.765 595.432C523.765 595.432 532.613 612.385 533.967 615.91C535.321 619.435 538.618 650.781 538.618 650.781C538.618 650.781 534.21 651.29 533.024 650.781C531.839 650.273 526.924 627.47 524.213 622.796C520.088 615.692 497.678 602.445 503.415 590.507" fill="#FC7031"/>
<path d="M522.071 558.539C525.422 558.539 528.138 554.118 528.138 548.663C528.138 543.209 525.422 538.788 522.071 538.788C518.72 538.788 516.004 543.209 516.004 548.663C516.004 554.118 518.72 558.539 522.071 558.539Z" fill="#DC8E6C"/>
<path d="M508.833 545.271C508.833 542.722 510.083 541.114 511.1 540.602C513.061 539.604 513.881 540.049 515.857 539.272C517.997 538.44 519.832 536.012 522.337 536.012C524.679 536.012 524.468 537.193 526.055 537.542C526.992 537.746 532.311 536.661 532.311 539.717C532.311 544.423 526.425 544.805 525.063 545.408C524.858 544.866 524.621 544.335 524.351 543.816C523.279 544.797 519.397 545.479 518.769 545.699C517.318 546.231 516.625 548.248 516.625 549.566C516.625 550.883 515.281 550.888 514.944 550.888C511.839 550.888 508.833 549.121 508.833 545.271Z" fill="#FC7031"/>
<path d="M611.705 573.067L585.809 606.05L563.295 629.47C563.295 630.413 567.388 634.291 568.015 634.291C569.552 633.661 628.195 590.926 628.195 590.926L611.705 573.067Z" fill="#FC7031"/>
<path d="M617.637 553.628C616.579 553.726 604.638 553.994 604.638 553.994C604.638 553.994 589.085 556.135 586.961 555.755C585.664 555.524 584.308 561.605 585.941 560.848C588.463 559.662 605.06 560.096 606.331 560.149C607.601 560.201 618.513 561.115 618.906 561.195C619.299 561.275 617.637 553.628 617.637 553.628Z" fill="#F8CDBA"/>
<path d="M642.164 569.957C642.832 570.863 652.086 575.652 653.329 575.553C654.571 575.454 661.006 560.437 662.431 558.98C662.739 558.671 658.91 555.805 658.833 556.665C658.699 558.197 651.533 567.729 651.533 567.729L646.783 565.012L642.164 569.957Z" fill="#F8CDBA"/>
<path d="M637.699 559.821C640.152 557.198 647.789 563.216 647.98 564.587C648.264 566.618 642.766 570.964 641.45 570.862C640.134 570.76 635.361 562.326 637.699 559.821Z" fill="#FFC78E"/>
<path d="M637.284 554.715C647.428 559.817 636.478 578.155 631.515 579.88C628.858 580.806 613.529 573.707 613.364 571.382C613.199 569.056 625.458 548.767 637.284 554.715Z" fill="#FC7031"/>
<path d="M631.689 556.281C632.824 562.375 619.158 562.792 618.289 562.221C617.42 561.65 616.343 554.435 617.42 553.193C619.855 552.622 630.978 552.457 631.689 556.281Z" fill="#FFE4AD"/>
<path d="M613.363 571.381C594.991 583.843 622.729 598.234 638.567 592.443C638.236 594.552 635.695 614.757 635.695 614.757L642.008 616.557C642.008 616.557 657.488 588.007 654.738 581.72C653.84 579.662 622.984 574.022 617.134 574.585C615.736 573.718 613.464 572.343 613.363 571.381Z" fill="#FF905F"/>
<path d="M636.308 614.619L633.115 619.639L645.041 628.383L646.657 626.539L641.387 616.395L636.308 614.619Z" fill="#FC7031"/>
<path d="M564.115 630.399L559.415 633.641L562.445 645.658L565.221 645.155L567.599 633.692L564.115 630.399Z" fill="#FC7031"/>
<path d="M664.186 557.414C665.021 555.576 664.521 553.665 663.07 553.145C661.619 552.625 659.766 553.694 658.931 555.531C658.096 557.369 658.596 559.28 660.047 559.8C661.498 560.32 663.351 559.251 664.186 557.414Z" fill="#F8CDBA"/>
<path d="M585.108 561.07C587.303 561.07 589.083 559.7 589.083 558.011C589.083 556.322 587.303 554.952 585.108 554.952C582.913 554.952 581.133 556.322 581.133 558.011C581.133 559.7 582.913 561.07 585.108 561.07Z" fill="#F8CDBA"/>
<path d="M650.751 548.75C651.778 544.966 649.766 541.289 646.257 540.538C642.748 539.788 639.071 542.247 638.044 546.031C637.017 549.815 639.029 553.491 642.538 554.242C646.047 554.993 649.724 552.534 650.751 548.75Z" fill="#E49D75"/>
<path d="M650.861 545.289C650.357 542.931 648.665 541.053 646.255 540.539C642.745 539.787 639.067 542.247 638.04 546.03C638.019 546.111 638 546.193 637.981 546.273C640.887 547.218 647.749 546.837 650.861 545.289Z" fill="#FC7031"/>
<path d="M638.596 547.112C638.431 548.136 634.977 553.66 633.698 554.481C633.614 555.829 637.15 558.055 638.836 557.677C639.522 556.133 640.697 554.01 641.726 553.143C642.755 552.275 638.596 547.112 638.596 547.112Z" fill="#E49D75"/>
<path d="M644.841 540.654C644.841 537.492 640.913 535.523 638.607 535.523C631.955 535.523 632.111 544.71 623.579 544.71C622.817 544.71 622.475 544.594 621.582 544.77C621.582 547.656 625.598 550.159 628.237 550.159C635.553 550.159 636.662 540.9 641.183 540.9C641.878 540.9 642.796 541.376 642.796 541.376L644.841 540.654Z" fill="#FC7031"/>
<path d="M641.416 547.507C641.819 546.608 641.423 545.624 640.531 545.309C639.639 544.994 638.589 545.468 638.187 546.366C637.784 547.265 638.18 548.249 639.072 548.564C639.964 548.879 641.014 548.406 641.416 547.507Z" fill="#E49D75"/>
<g filter="url(#filter0_b)">
<path d="M351.608 344.629C351.435 347.384 350.436 349.562 348.612 351.161C346.799 352.761 344.392 353.575 341.392 353.603C338.111 353.634 335.517 352.557 333.609 350.372C331.713 348.175 330.747 345.149 330.71 341.294L330.696 339.729C330.672 337.269 331.085 335.097 331.935 333.213C332.784 331.33 334.007 329.883 335.603 328.872C337.21 327.849 339.08 327.327 341.213 327.307C344.166 327.279 346.552 328.047 348.372 329.612C350.191 331.177 351.255 333.387 351.564 336.244L346.291 336.294C346.146 334.643 345.672 333.452 344.868 332.721C344.076 331.979 342.871 331.615 341.254 331.631C339.496 331.647 338.184 332.293 337.317 333.567C336.462 334.829 336.035 336.784 336.037 339.433L336.055 341.366C336.081 344.132 336.517 346.149 337.361 347.418C338.217 348.688 339.547 349.314 341.351 349.297C342.98 349.281 344.19 348.901 344.979 348.155C345.781 347.397 346.233 346.238 346.335 344.679L351.608 344.629ZM369.55 347.71L360.305 347.798L358.597 353.088L352.99 353.141L362.274 327.458L367.16 327.412L376.983 352.914L371.376 352.967L369.55 347.71ZM361.688 343.513L368.086 343.453L364.779 333.904L361.688 343.513ZM384.607 348.605L395.803 348.498L395.844 352.735L379.374 352.891L379.131 327.298L384.404 327.248L384.607 348.605ZM404.492 352.652L399.218 352.702L398.975 327.11L404.249 327.06L404.492 352.652ZM422.603 345.765C422.593 344.769 422.235 344.011 421.526 343.49C420.818 342.958 419.547 342.407 417.714 341.839C415.88 341.259 414.427 340.686 413.355 340.122C410.434 338.58 408.961 336.478 408.936 333.818C408.923 332.436 409.298 331.202 410.061 330.116C410.836 329.019 411.947 328.159 413.394 327.536C414.853 326.912 416.491 326.592 418.307 326.575C420.135 326.557 421.767 326.876 423.203 327.53C424.639 328.173 425.755 329.094 426.552 330.294C427.36 331.493 427.771 332.86 427.786 334.395L422.513 334.445C422.502 333.274 422.124 332.369 421.38 331.731C420.635 331.082 419.595 330.764 418.259 330.777C416.97 330.789 415.971 331.074 415.261 331.631C414.552 332.177 414.201 332.895 414.209 333.786C414.217 334.618 414.64 335.311 415.477 335.866C416.326 336.42 417.568 336.936 419.201 337.412C422.209 338.286 424.406 339.385 425.789 340.707C427.173 342.03 427.874 343.688 427.893 345.68C427.914 347.895 427.093 349.643 425.429 350.924C423.765 352.194 421.516 352.842 418.68 352.869C416.711 352.888 414.915 352.548 413.291 351.848C411.667 351.137 410.421 350.159 409.554 348.913C408.698 347.667 408.263 346.218 408.247 344.566L413.538 344.515C413.565 347.339 415.265 348.735 418.64 348.703C419.894 348.692 420.87 348.43 421.568 347.92C422.267 347.397 422.611 346.679 422.603 345.765ZM450.605 330.891L442.766 330.966L442.968 352.287L437.695 352.337L437.493 331.016L429.759 331.089L429.718 326.818L450.565 326.62L450.605 330.891ZM474.66 351.986L469.387 352.036L469.283 341.068L459 341.166L459.104 352.134L453.831 352.184L453.588 326.591L458.861 326.541L458.96 336.912L469.243 336.814L469.144 326.444L474.417 326.394L474.66 351.986ZM494.576 340.705L484.451 340.801L484.516 347.656L496.398 347.543L496.439 351.779L479.283 351.942L479.04 326.35L496.16 326.187L496.201 330.458L484.354 330.571L484.412 336.67L494.536 336.574L494.576 340.705ZM520.344 351.552L515.071 351.603L504.646 334.861L504.805 351.7L499.532 351.75L499.289 326.157L504.562 326.107L515.005 342.884L514.845 326.01L520.101 325.96L520.344 351.552ZM530.556 351.456L525.283 351.506L525.04 325.913L530.313 325.863L530.556 351.456ZM555.47 342.693C555.297 345.449 554.298 347.626 552.474 349.226C550.66 350.825 548.254 351.639 545.254 351.668C541.973 351.699 539.379 350.622 537.471 348.437C535.575 346.24 534.609 343.214 534.572 339.358L534.558 337.794C534.534 335.333 534.947 333.161 535.796 331.278C536.646 329.395 537.868 327.948 539.464 326.936C541.072 325.913 542.942 325.391 545.075 325.371C548.028 325.343 550.414 326.112 552.234 327.676C554.053 329.241 555.117 331.452 555.426 334.308L550.153 334.359C550.008 332.707 549.534 331.517 548.73 330.786C547.938 330.043 546.733 329.68 545.116 329.695C543.358 329.712 542.046 330.357 541.179 331.631C540.324 332.893 539.897 334.848 539.899 337.497L539.917 339.431C539.943 342.196 540.378 344.213 541.223 345.483C542.078 346.752 543.409 347.378 545.213 347.361C546.842 347.346 548.051 346.965 548.841 346.219C549.643 345.462 550.095 344.303 550.197 342.743L555.47 342.693ZM572.221 344.345C572.212 343.349 571.853 342.59 571.145 342.07C570.436 341.537 569.166 340.987 567.332 340.418C565.498 339.838 564.045 339.266 562.974 338.702C560.053 337.159 558.58 335.058 558.554 332.398C558.541 331.015 558.916 329.781 559.679 328.696C560.454 327.598 561.565 326.738 563.012 326.115C564.471 325.492 566.109 325.171 567.925 325.154C569.753 325.137 571.385 325.455 572.821 326.11C574.257 326.752 575.373 327.673 576.17 328.873C576.978 330.072 577.39 331.44 577.404 332.975L572.131 333.025C572.12 331.853 571.742 330.948 570.998 330.311C570.253 329.662 569.213 329.343 567.877 329.356C566.588 329.368 565.589 329.653 564.879 330.211C564.17 330.757 563.819 331.475 563.828 332.365C563.836 333.197 564.258 333.891 565.095 334.445C565.945 335 567.186 335.515 568.819 335.992C571.828 336.866 574.024 337.964 575.408 339.287C576.791 340.61 577.493 342.267 577.511 344.259C577.532 346.474 576.711 348.222 575.047 349.504C573.384 350.773 571.134 351.422 568.298 351.449C566.329 351.467 564.533 351.127 562.909 350.428C561.285 349.716 560.04 348.738 559.172 347.492C558.317 346.246 557.881 344.797 557.865 343.145L563.156 343.095C563.183 345.919 564.884 347.315 568.259 347.283C569.512 347.271 570.488 347.01 571.187 346.499C571.885 345.977 572.23 345.259 572.221 344.345ZM595.313 341.823L595.399 350.84L590.126 350.89L589.883 325.297L599.867 325.203C601.788 325.184 603.479 325.52 604.939 326.209C606.41 326.898 607.545 327.89 608.342 329.183C609.14 330.464 609.546 331.931 609.562 333.584C609.586 336.091 608.743 338.08 607.034 339.549C605.337 341.007 602.971 341.75 599.936 341.779L595.313 341.823ZM595.273 337.551L599.984 337.507C601.378 337.493 602.435 337.155 603.156 336.492C603.888 335.829 604.248 334.888 604.236 333.669C604.224 332.415 603.846 331.405 603.1 330.639C602.355 329.872 601.331 329.484 600.03 329.473L595.197 329.519L595.273 337.551ZM624.633 345.289L615.387 345.376L613.679 350.666L608.072 350.72L617.356 325.036L622.243 324.99L632.065 350.492L626.458 350.545L624.633 345.289ZM616.77 341.092L623.168 341.031L619.861 331.482L616.77 341.092ZM643.841 341.01L639.64 341.05L639.729 350.419L634.456 350.469L634.213 324.876L643.722 324.786C646.745 324.757 649.084 325.409 650.737 326.741C652.39 328.073 653.229 329.97 653.252 332.43C653.269 334.176 652.902 335.639 652.151 336.818C651.412 337.985 650.279 338.922 648.75 339.628L654.386 350.034L654.388 350.28L648.729 350.334L643.841 341.01ZM639.599 336.779L643.853 336.739C645.177 336.726 646.2 336.382 646.92 335.707C647.64 335.021 647.994 334.086 647.983 332.902C647.972 331.695 647.617 330.749 646.919 330.065C646.233 329.38 645.181 329.044 643.763 329.057L639.527 329.098L639.599 336.779ZM665.365 339.909L662.651 342.889L662.72 350.201L657.447 350.251L657.204 324.658L662.477 324.608L662.587 336.209L664.877 333.006L671.319 324.524L677.805 324.463L668.825 335.921L678.311 350.053L672.036 350.112L665.365 339.909Z" fill="#FC844F"/>
</g>
<path d="M789.254 542.379L823.615 476.431M789.254 671.337L809.985 631.017M789.254 455.047L823.615 389.099" stroke="#FEDEA8" stroke-width="3" stroke-miterlimit="10" stroke-linecap="round"/>
<path d="M116.911 221.807L0 704.967H233.822L116.911 221.807Z" fill="#FC844F"/>
<path d="M202.649 221.781L85.7374 704.94H319.56L202.649 221.781Z" fill="#FC844F"/>
<path d="M202.578 224.066L202.794 704.474" stroke="#FFEAB6" stroke-width="4" stroke-miterlimit="10" stroke-linecap="round"/>
<path d="M116.96 223.25L112.248 703.637" stroke="#FFEAB6" stroke-width="4" stroke-miterlimit="10" stroke-linecap="round"/>
<path d="M202.794 704.963L230.941 650.22" stroke="#FEDEA8" stroke-width="5" stroke-miterlimit="10" stroke-linecap="round"/>
<path d="M202.861 613.907L231.008 559.164M113.461 588.308L141.609 533.565" stroke="#FEDEA8" stroke-width="5" stroke-miterlimit="10" stroke-linecap="round"/>
<path d="M113.45 702.573L141.597 647.83M113.45 589.065L85.3027 534.322" stroke="#FEDEA8" stroke-width="5" stroke-miterlimit="10" stroke-linecap="round"/>
<path d="M202.861 523.799L216.445 496.264L231.008 469.056M114.429 498.201L128.503 470.829L142.577 443.457" stroke="#FEDEA8" stroke-width="5" stroke-miterlimit="10" stroke-linecap="round"/>
<path d="M113.521 497.355L99.9367 469.82L85.3733 442.612" stroke="#FEDEA8" stroke-width="5" stroke-miterlimit="10" stroke-linecap="round"/>
<path d="M202.794 426.594L230.941 371.85" stroke="#FEDEA8" stroke-width="5" stroke-miterlimit="10" stroke-linecap="round"/>
<path d="M202.794 704.963L174.647 650.22" stroke="#FEDEA8" stroke-width="5" stroke-miterlimit="10" stroke-linecap="round"/>
<path d="M787.365 604.795L759.218 550.052" stroke="#FEDEA8" stroke-width="3" stroke-miterlimit="10" stroke-linecap="round"/>
<path d="M202.496 426.562L176.278 375.465M112.116 701.983L83.969 647.239M789.417 495.775L761.27 441.032M202.956 524.015L174.809 469.494M202.496 610.613L174.35 555.869" stroke="#FEDEA8" stroke-width="5" stroke-miterlimit="10" stroke-linecap="round"/>
<circle cx="407.033" cy="191.826" r="0.244856" fill="#C4C4C4"/>
<circle cx="411.603" cy="191.99" r="0.244856" fill="#C4C4C4"/>
<path d="M799.047 122.519C801.247 113.512 800.154 104.013 795.967 95.7445C791.781 87.4762 784.778 80.9865 776.229 77.4528C767.68 73.919 758.151 73.5752 749.37 76.4838C740.59 79.3924 733.14 85.3607 728.372 93.306C723.702 91.19 718.577 90.2814 713.466 90.6634C708.355 91.0454 703.421 92.7057 699.114 95.4927C694.808 98.2796 691.267 102.104 688.814 106.617C686.361 111.13 685.076 116.188 685.074 121.328C685.074 121.73 685.074 122.149 685.074 122.519H799.047Z" fill="#FCA883"/>
<path d="M260.454 158.599C258.254 149.622 259.347 140.155 263.533 131.915C267.72 123.675 274.723 117.207 283.272 113.686C291.821 110.164 301.35 109.821 310.13 112.72C318.91 115.619 326.36 121.567 331.128 129.485C335.799 127.369 340.925 126.459 346.039 126.836C351.152 127.214 356.089 128.868 360.398 131.647C364.706 134.425 368.248 138.24 370.699 142.741C373.15 147.243 374.431 152.287 374.426 157.411C374.426 157.804 374.426 158.23 374.426 158.599H260.454Z" fill="#FCA883"/>
<path d="M442.972 47.8286C440.772 38.8522 441.865 29.3852 446.052 21.145C450.238 12.9048 457.241 6.4372 465.79 2.91546C474.339 -0.606281 483.868 -0.948867 492.649 1.94984C501.429 4.84854 508.879 10.7965 513.647 18.7148C518.317 16.5992 523.444 15.6885 528.557 16.0662C533.671 16.4438 538.608 18.0978 542.916 20.8766C547.224 23.6553 550.766 27.47 553.217 31.9713C555.668 36.4726 556.95 41.5165 556.945 46.6411C556.945 47.0342 556.945 47.4601 556.945 47.8286H442.972Z" fill="#FCA883"/>
<path d="M796.814 704.963H972.08V527.966C972.032 507.033 965.519 486.976 953.964 472.174C942.41 457.372 926.752 449.03 910.411 448.968C907.089 448.97 903.773 449.315 900.494 449.998V246.312C900.494 231.971 896.047 218.218 888.132 208.077C880.217 197.935 869.481 192.237 858.286 192.234C847.09 192.234 836.352 197.932 828.435 208.073C820.518 218.215 816.07 231.97 816.07 246.312V289.913C809.719 287.14 803.054 285.725 796.344 285.724C780.001 285.785 764.342 294.129 752.787 308.933C741.232 323.737 734.72 343.797 734.674 364.731V509.917H707.815C696.652 509.961 685.955 515.661 678.061 525.773C670.167 535.885 665.717 549.588 665.683 563.889V689.588C665.684 694.795 666.277 699.975 667.443 704.963" fill="#FC844F"/>
<path d="M859.609 603.757C960.327 603.757 960.327 558.658 960.327 490.47" stroke="#FEC48F" stroke-width="5" stroke-linecap="round" stroke-linejoin="round"/>
<path d="M858.793 507.446L777.99 419.298" stroke="#FEC48F" stroke-width="5" stroke-linecap="round" stroke-linejoin="round"/>
<path d="M860.425 399.22L779.623 311.071" stroke="#FEC48F" stroke-width="5" stroke-linecap="round" stroke-linejoin="round"/>
<path d="M858.793 666.766L777.99 578.618" stroke="#FEC48F" stroke-width="5" stroke-linecap="round" stroke-linejoin="round"/>
<path d="M860.381 703.671L858.793 195.336" stroke="#FEC48F" stroke-width="5" stroke-linecap="round" stroke-linejoin="round"/>
<defs>
<filter id="filter0_b" x="326.695" y="320.463" width="355.617" height="37.1412" filterUnits="userSpaceOnUse" color-interpolation-filters="sRGB">
<feFlood flood-opacity="0" result="BackgroundImageFix"/>
<feGaussianBlur in="BackgroundImage" stdDeviation="2"/>
<feComposite in2="SourceAlpha" operator="in" result="effect1_backgroundBlur"/>
<feBlend mode="normal" in="SourceGraphic" in2="effect1_backgroundBlur" result="shape"/>
</filter>
<linearGradient id="paint0_linear" x1="493.221" y1="180" x2="493.221" y2="597.725" gradientUnits="userSpaceOnUse">
<stop stop-color="#FC7031"/>
<stop offset="0.0001" stop-color="#FC8C5A" stop-opacity="0.802083"/>
<stop offset="1" stop-color="white" stop-opacity="0"/>
</linearGradient>
</defs>
</svg>
