<svg width="731" height="533" viewBox="0 0 731 533" fill="none" xmlns="http://www.w3.org/2000/svg">
<path d="M566.554 518.624C567.151 444.498 568.105 325.424 568.105 307.801C568.105 281.944 536.578 204.497 481.428 204.497C421.01 204.497 391.153 288.95 351.606 288.95C315.358 288.95 312.5 266.596 267.631 266.596C238.394 266.596 178.239 312.234 178.239 358.89L218.281 518.588L566.554 518.624Z" fill="url(#paint0_linear)"/>
<path d="M576.497 478.729C577.094 404.603 578.048 285.529 578.048 267.906C578.048 242.049 546.521 164.602 491.371 164.602C430.953 164.602 401.096 249.055 361.549 249.055C325.301 249.055 322.443 226.701 277.574 226.701C248.338 226.701 188.182 272.339 188.182 318.995L228.224 478.693L576.497 478.729Z" fill="url(#paint1_linear)"/>
<path d="M571.587 438.834C572.183 364.708 573.138 245.634 573.138 228.011C573.138 202.154 541.61 124.707 486.461 124.707C426.042 124.707 396.185 209.16 356.638 209.16C320.391 209.16 317.533 186.806 272.664 186.806C243.427 186.806 183.272 232.444 183.272 279.1L223.314 438.798L571.587 438.834Z" fill="url(#paint2_linear)"/>
<path d="M326.289 439.895C325.932 439.829 325.454 439.359 325.233 438.958" stroke="#FC7031" stroke-width="1.2" stroke-miterlimit="10" stroke-linecap="round"/>
<path d="M282.713 468.308C282.188 469.705 277.083 488.097 276.095 488.977C275.108 489.857 247.466 502.556 247.466 502.556L249.342 506.762C249.342 506.762 278.309 498.565 279.809 497.84C281.309 497.115 292.73 488.234 294.471 484.503C296.212 480.772 284.713 468.256 282.713 468.308Z" fill="#FC7031"/>
<path d="M310.109 518.274C310.109 518.902 309.673 522.86 310.541 523.225C311.409 523.591 320.953 523.813 321.385 523.445C321.818 523.077 322.081 522.309 321.699 522.089C321.316 521.87 317.624 521.248 317.123 520.954C316.621 520.66 315.929 519.1 316.183 518.274" fill="#FC7031"/>
<path d="M400.43 488.969C400.43 489.596 399.995 493.555 400.863 493.92C401.731 494.285 411.274 494.508 411.707 494.14C412.139 493.772 412.403 493.004 412.02 492.784C411.638 492.564 407.946 491.942 407.444 491.648C406.943 491.354 406.25 489.795 406.504 488.969" fill="#FC7031"/>
<path d="M309.315 457.678C308.704 457.829 303.794 458.862 303.284 458.862C302.775 458.862 302.062 463.035 302.572 462.993C303.081 462.951 309.52 461.316 311.123 461.187C312.726 461.057 309.315 457.678 309.315 457.678Z" fill="#F8CDBA"/>
<path d="M402.678 433.555C402.067 433.706 397.156 434.74 396.647 434.74C396.137 434.74 395.425 438.912 395.934 438.87C396.444 438.828 402.883 437.194 404.486 437.064C406.088 436.934 402.678 433.555 402.678 433.555Z" fill="#F8CDBA"/>
<path d="M291.864 439.271C295.397 438.974 301.917 440.491 303.97 441.542C308.012 443.613 303.347 470.305 301.25 472.286C299.375 472.95 283.476 469.609 282.678 468.181C283.103 465.326 289.406 455.428 290.005 454.893C289.605 454.536 287.808 452.573 287.808 452.573C287.808 452.573 289.424 450.635 289.605 450.524C289.09 450.217 283.942 446.584 283.656 446.379C284.685 445.019 290.676 439.37 291.864 439.271Z" fill="#FC7031"/>
<path d="M297.098 462.362C296.819 461.764 288.244 452.953 287.935 452.599C288.402 452.028 289.177 451.15 289.813 450.492C287.365 448.923 284.738 447.143 283.793 446.423C283.775 446.441 283.767 446.46 283.749 446.48C283.321 446.929 279.509 451.945 279.509 452.65C279.509 453.355 291.178 463.338 292.635 463.827C294.092 464.315 297.377 462.961 297.098 462.362Z" fill="#F8CDBA"/>
<path d="M310.671 461.743C312.13 461.743 313.312 460.623 313.312 459.242C313.312 457.86 312.13 456.74 310.671 456.74C309.213 456.74 308.03 457.86 308.03 459.242C308.03 460.623 309.213 461.743 310.671 461.743Z" fill="#F8CDBA"/>
<path d="M301.324 472.404C301.324 472.404 309.514 486.509 310.768 489.442C312.021 492.375 315.073 518.454 315.073 518.454C315.073 518.454 310.992 518.877 309.895 518.454C308.797 518.031 304.248 499.059 301.739 495.17C297.92 489.261 277.175 478.239 282.486 468.308" fill="#FF905F"/>
<path d="M247.375 501.559C246.604 501.843 241.555 503.235 241.481 504.201C241.407 505.167 245.242 514.058 245.879 514.289C246.516 514.521 247.573 514.417 247.675 513.958C247.777 513.498 246.97 509.822 247.101 509.228C247.231 508.634 248.861 507.293 249.992 507.155" fill="#FC7031"/>
<path d="M349.92 474.381C349.149 474.666 344.099 476.057 344.025 477.023C343.951 477.989 347.786 486.88 348.423 487.112C349.061 487.343 350.117 487.24 350.219 486.78C350.321 486.321 349.515 482.644 349.645 482.05C349.775 481.456 351.406 480.115 352.536 479.977" fill="#FC7031"/>
<path d="M299.118 439.971C301.652 439.971 303.706 437.186 303.706 433.752C303.706 430.318 301.652 427.534 299.118 427.534C296.584 427.534 294.53 430.318 294.53 433.752C294.53 437.186 296.584 439.971 299.118 439.971Z" fill="#DC8E6C"/>
<path d="M291.129 431.189C291.129 429.272 292.069 428.062 292.833 427.678C294.308 426.927 294.925 427.262 296.41 426.677C298.02 426.052 299.4 424.226 301.284 424.226C303.044 424.226 302.886 425.114 304.08 425.377C304.784 425.53 308.784 424.714 308.784 427.012C308.784 430.551 304.358 430.839 303.333 431.292C303.18 430.884 303.001 430.485 302.798 430.094C301.992 430.832 299.073 431.345 298.601 431.511C297.509 431.911 296.988 433.427 296.988 434.418C296.988 435.409 295.977 435.412 295.724 435.412C293.389 435.412 291.129 434.084 291.129 431.189Z" fill="#FC7031"/>
<path d="M378.571 444.101C378.142 445.36 373.965 461.943 373.158 462.736C372.35 463.53 349.735 474.98 349.735 474.98L351.27 478.771C351.27 478.771 374.969 471.381 376.196 470.727C377.423 470.073 386.766 462.067 388.191 458.702C389.615 455.338 380.208 444.054 378.571 444.101Z" fill="#FF905F"/>
<path d="M386.138 418.076C389.048 417.809 394.418 419.174 396.109 420.121C399.439 421.984 395.596 446.013 393.869 447.796C392.324 448.394 379.229 445.386 378.571 444.101C378.921 441.531 384.113 432.621 384.606 432.139C384.277 431.818 382.797 430.051 382.797 430.051C382.797 430.051 384.128 428.306 384.277 428.206C383.853 427.93 379.612 424.659 379.377 424.474C380.224 423.25 385.159 418.166 386.138 418.076Z" fill="#FF905F"/>
<path d="M390.314 438.944C390.086 438.399 383.057 430.37 382.803 430.047C383.187 429.527 383.822 428.727 384.343 428.127C382.336 426.698 380.183 425.075 379.408 424.42C379.394 424.436 379.387 424.453 379.372 424.471C379.022 424.881 375.896 429.451 375.896 430.094C375.896 430.736 385.462 439.834 386.656 440.279C387.85 440.724 390.543 439.49 390.314 438.944Z" fill="#F8CDBA"/>
<path d="M404.543 437.008C405.797 437.008 406.813 436.015 406.813 434.791C406.813 433.566 405.797 432.574 404.543 432.574C403.289 432.574 402.273 433.566 402.273 434.791C402.273 436.015 403.289 437.008 404.543 437.008Z" fill="#F8CDBA"/>
<path d="M389.19 443.268C390.444 443.268 391.46 442.276 391.46 441.051C391.46 439.827 390.444 438.834 389.19 438.834C387.937 438.834 386.92 439.827 386.92 441.051C386.92 442.276 387.937 443.268 389.19 443.268Z" fill="#F8CDBA"/>
<path d="M296.02 466.1C297.274 466.1 298.29 465.108 298.29 463.883C298.29 462.659 297.274 461.666 296.02 461.666C294.767 461.666 293.75 462.659 293.75 463.883C293.75 465.108 294.767 466.1 296.02 466.1Z" fill="#F8CDBA"/>
<path d="M393.869 447.796C393.869 447.796 400.523 460.545 401.541 463.196C402.559 465.846 405.038 489.419 405.038 489.419C405.038 489.419 401.724 489.801 400.832 489.419C399.94 489.036 396.244 471.889 394.206 468.373C391.104 463.032 374.251 453.07 378.566 444.093" fill="#FC7031"/>
<path d="M392.595 420.053C395.115 420.053 397.157 416.728 397.157 412.626C397.157 408.525 395.115 405.2 392.595 405.2C390.075 405.2 388.032 408.525 388.032 412.626C388.032 416.728 390.075 420.053 392.595 420.053Z" fill="#DC8E6C"/>
<path d="M382.64 410.075C382.64 408.159 383.581 406.949 384.345 406.564C385.82 405.814 386.436 406.148 387.922 405.564C389.531 404.939 390.912 403.113 392.795 403.113C394.556 403.113 394.398 404.001 395.591 404.263C396.296 404.416 400.296 403.601 400.296 405.898C400.296 409.437 395.869 409.725 394.845 410.178C394.691 409.771 394.513 409.371 394.31 408.981C393.503 409.719 390.584 410.231 390.112 410.397C389.021 410.797 388.5 412.314 388.5 413.305C388.5 414.296 387.489 414.299 387.236 414.299C384.901 414.299 382.64 412.97 382.64 410.075Z" fill="#FC7031"/>
<path d="M460 430.978L440.526 455.78L423.595 473.392C423.595 474.101 426.673 477.018 427.145 477.018C428.301 476.544 472.4 444.407 472.4 444.407L460 430.978Z" fill="#FC7031"/>
<path d="M464.461 416.36C463.665 416.433 454.685 416.635 454.685 416.635C454.685 416.635 442.989 418.245 441.392 417.959C440.417 417.785 439.397 422.359 440.625 421.789C442.521 420.897 455.003 421.224 455.958 421.263C456.914 421.302 465.119 421.989 465.415 422.05C465.71 422.11 464.461 416.36 464.461 416.36Z" fill="#F8CDBA"/>
<path d="M482.905 428.639C483.407 429.32 490.366 432.921 491.3 432.847C492.235 432.773 497.074 421.48 498.145 420.384C498.377 420.152 495.497 417.997 495.44 418.643C495.339 419.796 489.95 426.963 489.95 426.963L486.378 424.921L482.905 428.639Z" fill="#F8CDBA"/>
<path d="M479.547 421.017C481.391 419.044 487.135 423.57 487.278 424.601C487.491 426.128 483.357 429.396 482.368 429.319C481.378 429.243 477.789 422.9 479.547 421.017Z" fill="#FFC78E"/>
<path d="M479.235 417.177C486.863 421.014 478.628 434.804 474.897 436.101C472.898 436.798 461.371 431.459 461.247 429.71C461.123 427.961 470.341 412.704 479.235 417.177Z" fill="#FC7031"/>
<path d="M475.027 418.354C475.881 422.937 465.604 423.251 464.951 422.821C464.297 422.392 463.487 416.967 464.297 416.032C466.129 415.603 474.493 415.479 475.027 418.354Z" fill="#FFE4AD"/>
<path d="M461.247 429.71C447.431 439.081 468.289 449.903 480.199 445.549C479.951 447.134 478.04 462.329 478.04 462.329L482.787 463.682C482.787 463.682 494.428 442.212 492.36 437.484C491.685 435.938 468.481 431.696 464.082 432.119C463.031 431.467 461.323 430.433 461.247 429.71Z" fill="#FF905F"/>
<path d="M478.501 462.224L476.1 465.999L485.068 472.575L486.284 471.188L482.32 463.56L478.501 462.224Z" fill="#FC7031"/>
<path d="M424.212 474.091L420.678 476.529L422.956 485.566L425.044 485.188L426.832 476.567L424.212 474.091Z" fill="#FC7031"/>
<path d="M499.465 419.206C500.093 417.824 499.717 416.387 498.626 415.996C497.535 415.606 496.141 416.409 495.513 417.791C494.885 419.173 495.261 420.61 496.352 421.001C497.443 421.392 498.837 420.588 499.465 419.206Z" fill="#F8CDBA"/>
<path d="M439.999 421.956C441.65 421.956 442.988 420.926 442.988 419.656C442.988 418.385 441.65 417.355 439.999 417.355C438.348 417.355 437.01 418.385 437.01 419.656C437.01 420.926 438.348 421.956 439.999 421.956Z" fill="#F8CDBA"/>
<path d="M489.362 412.691C490.134 409.846 488.621 407.081 485.983 406.516C483.344 405.952 480.579 407.801 479.806 410.647C479.034 413.492 480.547 416.257 483.186 416.821C485.824 417.386 488.59 415.537 489.362 412.691Z" fill="#E49D75"/>
<path d="M489.444 410.088C489.065 408.315 487.794 406.903 485.981 406.516C483.342 405.951 480.576 407.801 479.803 410.645C479.788 410.707 479.773 410.769 479.759 410.829C481.944 411.539 487.105 411.252 489.444 410.088Z" fill="#FC7031"/>
<path d="M480.221 411.459C480.097 412.23 477.5 416.383 476.538 417.001C476.475 418.015 479.134 419.688 480.402 419.404C480.918 418.244 481.802 416.647 482.575 415.995C483.349 415.342 480.221 411.459 480.221 411.459Z" fill="#E49D75"/>
<path d="M484.918 406.603C484.918 404.225 481.964 402.745 480.229 402.745C475.227 402.745 475.345 409.653 468.928 409.653C468.356 409.653 468.098 409.566 467.427 409.698C467.427 411.869 470.447 413.751 472.431 413.751C477.933 413.751 478.767 406.788 482.167 406.788C482.689 406.788 483.38 407.146 483.38 407.146L484.918 406.603Z" fill="#FC7031"/>
<path d="M482.342 411.757C482.645 411.081 482.347 410.341 481.676 410.104C481.006 409.867 480.217 410.223 479.914 410.899C479.611 411.575 479.909 412.315 480.58 412.552C481.25 412.789 482.04 412.433 482.342 411.757Z" fill="#E49D75"/>
<g filter="url(#filter0_bd)">
<path d="M275.072 328.459C274.957 330.297 274.291 331.748 273.074 332.815C271.866 333.881 270.261 334.423 268.262 334.442C266.074 334.463 264.345 333.745 263.073 332.288C261.809 330.824 261.165 328.806 261.14 326.236L261.13 325.193C261.115 323.553 261.39 322.105 261.956 320.849C262.523 319.594 263.338 318.629 264.402 317.955C265.473 317.273 266.72 316.925 268.142 316.911C270.111 316.893 271.701 317.405 272.915 318.448C274.128 319.491 274.837 320.965 275.043 322.87L271.527 322.903C271.431 321.802 271.115 321.008 270.579 320.521C270.051 320.026 269.247 319.784 268.169 319.794C266.997 319.805 266.123 320.235 265.545 321.085C264.975 321.926 264.69 323.23 264.691 324.995L264.703 326.284C264.721 328.128 265.011 329.473 265.574 330.319C266.144 331.165 267.031 331.583 268.234 331.571C269.32 331.561 270.126 331.307 270.653 330.81C271.187 330.305 271.488 329.533 271.557 328.493L275.072 328.459ZM287.034 330.514L280.87 330.572L279.731 334.099L275.993 334.135L282.183 317.013L285.44 316.982L291.989 333.983L288.251 334.018L287.034 330.514ZM281.792 327.716L286.057 327.675L283.852 321.309L281.792 327.716ZM297.071 331.11L304.536 331.039L304.562 333.863L293.582 333.968L293.42 316.906L296.936 316.872L297.071 331.11ZM310.328 333.809L306.812 333.842L306.65 316.78L310.166 316.747L310.328 333.809ZM322.402 329.217C322.396 328.553 322.156 328.048 321.684 327.7C321.212 327.346 320.365 326.979 319.142 326.6C317.92 326.213 316.951 325.831 316.237 325.455C314.29 324.427 313.307 323.026 313.291 321.253C313.282 320.331 313.532 319.508 314.041 318.784C314.557 318.053 315.298 317.479 316.263 317.064C317.235 316.648 318.327 316.435 319.538 316.423C320.757 316.412 321.845 316.624 322.802 317.06C323.759 317.489 324.503 318.103 325.035 318.903C325.573 319.702 325.848 320.614 325.857 321.637L322.342 321.671C322.334 320.889 322.083 320.286 321.586 319.861C321.09 319.428 320.397 319.216 319.506 319.225C318.647 319.233 317.981 319.423 317.507 319.794C317.034 320.158 316.801 320.637 316.806 321.231C316.812 321.786 317.093 322.248 317.651 322.617C318.218 322.987 319.045 323.331 320.134 323.649C322.14 324.231 323.604 324.963 324.526 325.845C325.449 326.727 325.916 327.832 325.929 329.16C325.943 330.637 325.395 331.802 324.286 332.656C323.177 333.503 321.677 333.935 319.787 333.953C318.474 333.966 317.277 333.739 316.194 333.272C315.111 332.798 314.281 332.146 313.703 331.315C313.132 330.485 312.842 329.519 312.831 328.417L316.359 328.384C316.376 330.267 317.51 331.197 319.76 331.176C320.596 331.168 321.247 330.994 321.712 330.653C322.178 330.305 322.408 329.827 322.402 329.217ZM341.07 319.301L335.844 319.351L335.979 333.565L332.463 333.598L332.328 319.384L327.172 319.433L327.145 316.586L341.043 316.454L341.07 319.301ZM357.107 333.364L353.591 333.398L353.522 326.086L346.667 326.151L346.736 333.463L343.221 333.496L343.059 316.435L346.574 316.401L346.64 323.315L353.495 323.25L353.429 316.336L356.945 316.303L357.107 333.364ZM370.384 325.844L363.634 325.908L363.677 330.478L371.599 330.402L371.626 333.227L360.189 333.335L360.027 316.273L371.44 316.165L371.467 319.013L363.569 319.088L363.608 323.154L370.358 323.09L370.384 325.844ZM387.563 333.075L384.047 333.109L377.097 321.948L377.204 333.174L373.688 333.207L373.526 316.145L377.042 316.112L384.004 327.296L383.897 316.047L387.401 316.014L387.563 333.075ZM394.371 333.011L390.855 333.044L390.693 315.982L394.209 315.949L394.371 333.011ZM410.98 327.169C410.865 329.006 410.199 330.458 408.982 331.524C407.774 332.59 406.169 333.133 404.169 333.152C401.982 333.173 400.252 332.455 398.981 330.998C397.717 329.533 397.073 327.516 397.048 324.946L397.038 323.903C397.023 322.262 397.298 320.814 397.864 319.559C398.431 318.303 399.246 317.339 400.31 316.664C401.381 315.982 402.628 315.635 404.05 315.621C406.019 315.602 407.609 316.115 408.822 317.158C410.036 318.201 410.745 319.675 410.951 321.579L407.435 321.613C407.339 320.512 407.023 319.718 406.487 319.231C405.958 318.736 405.155 318.494 404.077 318.504C402.905 318.515 402.031 318.945 401.453 319.794C400.883 320.636 400.598 321.939 400.599 323.705L400.611 324.994C400.629 326.838 400.919 328.183 401.482 329.029C402.052 329.875 402.939 330.292 404.142 330.281C405.228 330.271 406.034 330.017 406.561 329.52C407.095 329.015 407.396 328.242 407.465 327.202L410.98 327.169ZM422.147 328.27C422.141 327.606 421.902 327.101 421.43 326.753C420.958 326.399 420.11 326.032 418.888 325.653C417.665 325.266 416.697 324.884 415.982 324.508C414.035 323.48 413.053 322.079 413.036 320.305C413.027 319.384 413.277 318.561 413.786 317.837C414.303 317.106 415.043 316.532 416.008 316.117C416.981 315.701 418.073 315.488 419.284 315.476C420.502 315.465 421.59 315.677 422.548 316.113C423.505 316.542 424.249 317.156 424.78 317.956C425.319 318.755 425.593 319.667 425.603 320.69L422.087 320.723C422.08 319.942 421.828 319.339 421.332 318.914C420.836 318.481 420.142 318.269 419.252 318.278C418.392 318.286 417.726 318.476 417.253 318.847C416.78 319.211 416.546 319.69 416.552 320.284C416.557 320.838 416.839 321.301 417.397 321.67C417.963 322.04 418.791 322.384 419.88 322.702C421.885 323.284 423.349 324.016 424.272 324.898C425.194 325.78 425.662 326.885 425.674 328.213C425.688 329.69 425.141 330.855 424.032 331.709C422.922 332.556 421.423 332.988 419.532 333.006C418.22 333.019 417.022 332.792 415.939 332.325C414.857 331.851 414.026 331.199 413.448 330.368C412.878 329.538 412.587 328.572 412.577 327.47L416.104 327.437C416.122 329.32 417.256 330.25 419.506 330.229C420.342 330.221 420.992 330.047 421.458 329.706C421.923 329.358 422.153 328.879 422.147 328.27ZM437.542 326.589L437.599 332.6L434.084 332.634L433.922 315.572L440.578 315.509C441.859 315.496 442.986 315.72 443.959 316.18C444.94 316.639 445.697 317.3 446.228 318.162C446.76 319.017 447.031 319.994 447.041 321.096C447.057 322.768 446.496 324.093 445.356 325.073C444.225 326.045 442.647 326.54 440.624 326.559L437.542 326.589ZM437.515 323.741L440.656 323.711C441.585 323.703 442.29 323.477 442.77 323.035C443.258 322.593 443.499 321.966 443.491 321.153C443.483 320.317 443.23 319.644 442.733 319.133C442.236 318.622 441.554 318.363 440.687 318.355L437.464 318.386L437.515 323.741ZM457.088 328.899L450.925 328.958L449.786 332.484L446.048 332.52L452.237 315.398L455.495 315.367L462.044 332.368L458.305 332.404L457.088 328.899ZM451.847 326.101L456.112 326.061L453.907 319.695L451.847 326.101ZM469.894 326.047L467.093 326.074L467.153 332.32L463.637 332.353L463.475 315.291L469.815 315.231C471.83 315.212 473.389 315.646 474.491 316.534C475.594 317.422 476.153 318.687 476.168 320.327C476.179 321.491 475.935 322.466 475.434 323.252C474.942 324.03 474.186 324.655 473.167 325.125L476.924 332.063L476.926 332.227L473.152 332.263L469.894 326.047ZM467.066 323.226L469.902 323.199C470.785 323.191 471.466 322.962 471.946 322.512C472.427 322.054 472.663 321.431 472.655 320.642C472.648 319.837 472.411 319.207 471.946 318.75C471.488 318.293 470.787 318.07 469.842 318.079L467.018 318.105L467.066 323.226ZM484.243 325.313L482.434 327.299L482.48 332.174L478.965 332.207L478.803 315.146L482.318 315.112L482.392 322.846L483.918 320.711L488.212 315.056L492.536 315.015L486.55 322.655L492.874 332.075L488.691 332.115L484.243 325.313Z" fill="#FC844F"/>
</g>
<path d="M593.516 407.9L619.355 358.308M593.516 504.876L609.105 474.556M593.516 342.227L619.355 292.635" stroke="#FEDEA8" stroke-width="3" stroke-miterlimit="10" stroke-linecap="round"/>
<path d="M87.9168 166.832L0 530.166H175.834L87.9168 166.832Z" fill="#FC844F"/>
<path d="M152.391 166.812L64.4741 530.146H240.308L152.391 166.812Z" fill="#FC844F"/>
<path d="M152.338 168.531L152.5 529.795" stroke="#FFEAB6" stroke-width="4" stroke-miterlimit="10" stroke-linecap="round"/>
<path d="M87.9532 167.917L84.4101 529.166" stroke="#FFEAB6" stroke-width="4" stroke-miterlimit="10" stroke-linecap="round"/>
<path d="M152.5 530.163L173.667 488.997" stroke="#FEDEA8" stroke-width="5" stroke-miterlimit="10" stroke-linecap="round"/>
<path d="M152.551 461.689L173.717 420.522M85.3223 442.439L106.489 401.272" stroke="#FEDEA8" stroke-width="5" stroke-miterlimit="10" stroke-linecap="round"/>
<path d="M85.3141 528.366L106.481 487.199M85.314 443.008L64.1473 401.842" stroke="#FEDEA8" stroke-width="5" stroke-miterlimit="10" stroke-linecap="round"/>
<path d="M152.551 393.928L162.766 373.222L173.717 352.762M86.0505 374.678L96.6338 354.095L107.217 333.512" stroke="#FEDEA8" stroke-width="5" stroke-miterlimit="10" stroke-linecap="round"/>
<path d="M85.367 374.042L75.1519 353.336L64.2003 332.876" stroke="#FEDEA8" stroke-width="5" stroke-miterlimit="10" stroke-linecap="round"/>
<path d="M152.5 320.83L173.667 279.664" stroke="#FEDEA8" stroke-width="5" stroke-miterlimit="10" stroke-linecap="round"/>
<path d="M152.5 530.163L131.334 488.997" stroke="#FEDEA8" stroke-width="5" stroke-miterlimit="10" stroke-linecap="round"/>
<path d="M592.095 454.837L570.929 413.67" stroke="#FEDEA8" stroke-width="3" stroke-miterlimit="10" stroke-linecap="round"/>
<path d="M152.276 320.807L132.56 282.382M84.3104 527.922L63.1443 486.755M593.638 372.854L572.471 331.688M152.622 394.091L131.455 353.091M152.276 459.212L131.11 418.045" stroke="#FEDEA8" stroke-width="5" stroke-miterlimit="10" stroke-linecap="round"/>
<path d="M344.325 462.526C344.829 465.367 347.648 485.277 348.253 499.721" stroke="#FEDEA8" stroke-width="2" stroke-miterlimit="10" stroke-linecap="round"/>
<circle cx="306.087" cy="144.286" r="0.184131" fill="#C4C4C4"/>
<circle cx="309.524" cy="144.409" r="0.184131" fill="#C4C4C4"/>
<path d="M600.88 92.1675C602.534 85.3943 601.712 78.2509 598.564 72.0331C595.416 65.8154 590.15 60.9352 583.721 58.2778C577.292 55.6204 570.126 55.3619 563.523 57.5491C556.921 59.7364 551.318 64.2245 547.733 70.1994C544.22 68.6081 540.366 67.9249 536.523 68.2121C532.68 68.4994 528.969 69.7479 525.731 71.8437C522.493 73.9395 519.83 76.8157 517.985 80.2095C516.141 83.6033 515.174 87.4064 515.173 91.2715C515.173 91.5743 515.173 91.8895 515.173 92.1675H600.88Z" fill="#FCA883"/>
<path d="M195.86 119.299C194.206 112.549 195.028 105.43 198.176 99.2333C201.324 93.0367 206.59 88.1731 213.019 85.5248C219.448 82.8764 226.614 82.6188 233.217 84.7986C239.819 86.9784 245.422 91.4513 249.007 97.4058C252.519 95.8149 256.374 95.13 260.22 95.4141C264.065 95.6981 267.778 96.9418 271.018 99.0315C274.257 101.121 276.921 103.99 278.764 107.375C280.607 110.76 281.571 114.553 281.567 118.406C281.567 118.702 281.567 119.022 281.567 119.299H195.86Z" fill="#FCA883"/>
<path d="M333.113 36.0006C331.459 29.2504 332.281 22.1313 335.429 15.9346C338.577 9.73804 343.843 4.87444 350.272 2.2261C356.701 -0.422229 363.867 -0.679852 370.47 1.49996C377.072 3.67977 382.675 8.15262 386.26 14.1071C389.772 12.5162 393.627 11.8314 397.473 12.1154C401.318 12.3994 405.031 13.6432 408.271 15.7328C411.51 17.8224 414.174 20.691 416.017 24.076C417.86 27.4609 418.824 31.2539 418.82 35.1076C418.82 35.4032 418.82 35.7235 418.82 36.0006H333.113Z" fill="#FCA883"/>
<path d="M599.201 530.163H731V397.062C730.964 381.321 726.066 366.237 717.377 355.107C708.688 343.976 696.913 337.702 684.625 337.656C682.127 337.658 679.633 337.917 677.168 338.431V185.259C677.168 174.475 673.824 164.133 667.872 156.506C661.919 148.88 653.846 144.595 645.427 144.593C637.008 144.593 628.933 148.877 622.98 156.504C617.026 164.13 613.681 174.474 613.681 185.259V218.047C608.905 215.962 603.893 214.897 598.847 214.897C586.558 214.943 574.782 221.218 566.093 232.35C557.403 243.482 552.506 258.568 552.472 274.31V383.49H532.274C523.879 383.522 515.835 387.809 509.899 395.413C503.963 403.017 500.616 413.322 500.591 424.076V518.601C500.591 522.517 501.037 526.412 501.915 530.163" fill="#FC844F"/>
<path d="M646.422 454.056C722.161 454.056 722.161 420.142 722.161 368.865" stroke="#FEC48F" stroke-width="5" stroke-linecap="round" stroke-linejoin="round"/>
<path d="M645.809 381.631L585.045 315.344" stroke="#FEC48F" stroke-width="5" stroke-linecap="round" stroke-linejoin="round"/>
<path d="M647.036 300.245L586.273 233.958" stroke="#FEC48F" stroke-width="5" stroke-linecap="round" stroke-linejoin="round"/>
<path d="M645.809 501.439L585.045 435.152" stroke="#FEC48F" stroke-width="5" stroke-linecap="round" stroke-linejoin="round"/>
<path d="M647.003 529.191L645.809 146.926" stroke="#FEC48F" stroke-width="5" stroke-linecap="round" stroke-linejoin="round"/>
<defs>
<filter id="filter0_bd" x="257.13" y="311.015" width="239.744" height="31.4274" filterUnits="userSpaceOnUse" color-interpolation-filters="sRGB">
<feFlood flood-opacity="0" result="BackgroundImageFix"/>
<feGaussianBlur in="BackgroundImage" stdDeviation="2"/>
<feComposite in2="SourceAlpha" operator="in" result="effect1_backgroundBlur"/>
<feColorMatrix in="SourceAlpha" type="matrix" values="0 0 0 0 0 0 0 0 0 0 0 0 0 0 0 0 0 0 127 0"/>
<feOffset dy="4"/>
<feGaussianBlur stdDeviation="2"/>
<feColorMatrix type="matrix" values="0 0 0 0 0 0 0 0 0 0 0 0 0 0 0 0 0 0 0.25 0"/>
<feBlend mode="normal" in2="effect1_backgroundBlur" result="effect2_dropShadow"/>
<feBlend mode="normal" in="SourceGraphic" in2="effect2_dropShadow" result="shape"/>
</filter>
<linearGradient id="paint0_linear" x1="373.172" y1="204.497" x2="373.172" y2="518.624" gradientUnits="userSpaceOnUse">
<stop stop-color="#FC7031"/>
<stop offset="0.0001" stop-color="#FC8C5A" stop-opacity="0.802083"/>
<stop offset="1" stop-color="white" stop-opacity="0"/>
</linearGradient>
<linearGradient id="paint1_linear" x1="383.115" y1="164.602" x2="383.115" y2="478.729" gradientUnits="userSpaceOnUse">
<stop stop-color="#FC7031"/>
<stop offset="0.0001" stop-color="#FC8C5A" stop-opacity="0.802083"/>
<stop offset="1" stop-color="white" stop-opacity="0"/>
</linearGradient>
<linearGradient id="paint2_linear" x1="377.837" y1="124.707" x2="377.837" y2="438.834" gradientUnits="userSpaceOnUse">
<stop stop-color="#FC7031"/>
<stop offset="0.0001" stop-color="#FC8C5A" stop-opacity="0.802083"/>
<stop offset="1" stop-color="white" stop-opacity="0"/>
</linearGradient>
</defs>
</svg>
