<svg xmlns="http://www.w3.org/2000/svg" xmlns:xlink="http://www.w3.org/1999/xlink" width="50" zoomAndPan="magnify" viewBox="0 0 37.5 37.499999" height="50" preserveAspectRatio="xMidYMid meet" version="1.0"><defs><g/><clipPath id="df6daededf"><path d="M 0 0 L 37.007812 0 L 37.007812 37.007812 L 0 37.007812 Z M 0 0 " clip-rule="nonzero"/></clipPath><clipPath id="89aefdbb19"><path d="M 0 4.523438 L 37 4.523438 L 37 32.28125 L 0 32.28125 Z M 0 4.523438 " clip-rule="nonzero"/></clipPath></defs><g clip-path="url(#df6daededf)"><path fill="#ffffff" d="M 0 0 L 37.007812 0 L 37.007812 37.007812 L 0 37.007812 Z M 0 0 " fill-opacity="1" fill-rule="nonzero"/><path fill="#ffffff" d="M 0 0 L 37.007812 0 L 37.007812 37.007812 L 0 37.007812 Z M 0 0 " fill-opacity="1" fill-rule="nonzero"/></g><g clip-path="url(#89aefdbb19)"><path fill="#000000" d="M 7.828125 15.085938 L 0.0195312 4.523438 L 5.34375 4.523438 C 6.777344 6.585938 9.089844 9.207031 10.5 11.25 Z M 24.527344 4.523438 L 14.457031 18.992188 L 14.457031 32.089844 L 10.089844 32.089844 C 10.089844 27.261719 10.089844 22.429688 10.089844 17.601562 C 13.125 13.242188 16.167969 8.890625 19.207031 4.523438 Z M 29.132812 17.132812 L 26.445312 21.707031 L 31.835938 32.089844 L 36.988281 32.089844 Z M 34.238281 4.523438 L 28.917969 4.523438 C 25.878906 8.890625 21.839844 14.941406 18.804688 19.300781 L 18.804688 32.183594 L 23.171875 32.183594 L 23.171875 20.695312 Z M 34.238281 4.523438 " fill-opacity="1" fill-rule="nonzero"/></g><g fill="#000000" fill-opacity="1"><g transform="translate(6.139563, 15.57252)"><g><path d="M 0.765625 0.5625 L 1.296875 0.828125 L 1.296875 1.125 L 0.5 0.703125 L 0 0.703125 L 0 0.421875 L 0.5 0.421875 L 1.296875 0 L 1.296875 0.296875 Z M 0.765625 0.5625 "/></g></g><g transform="translate(6.139563, 16.699007)"><g><path d="M 1.296875 1.21875 L 0.453125 1.21875 C 0.359375 1.21875 0.273438 1.195312 0.203125 1.15625 C 0.128906 1.113281 0.0703125 1.050781 0.03125 0.96875 C 0 0.882812 -0.015625 0.789062 -0.015625 0.6875 C -0.015625 0.519531 0.0234375 0.390625 0.109375 0.296875 C 0.191406 0.203125 0.304688 0.15625 0.453125 0.15625 L 1.296875 0.15625 L 1.296875 0.421875 L 0.5 0.421875 C 0.40625 0.421875 0.332031 0.441406 0.28125 0.484375 C 0.238281 0.523438 0.21875 0.59375 0.21875 0.6875 C 0.21875 0.78125 0.238281 0.84375 0.28125 0.875 C 0.332031 0.914062 0.40625 0.9375 0.5 0.9375 L 1.296875 0.9375 Z M 1.296875 1.21875 "/></g></g><g transform="translate(6.139563, 18.063483)"><g><path d="M 0.65625 1.234375 C 0.445312 1.234375 0.285156 1.171875 0.171875 1.046875 C 0.0546875 0.929688 0 0.757812 0 0.53125 L 0 0.15625 L 1.296875 0.15625 L 1.296875 0.5625 C 1.296875 0.78125 1.238281 0.945312 1.125 1.0625 C 1.007812 1.175781 0.851562 1.234375 0.65625 1.234375 Z M 0.65625 0.953125 C 0.925781 0.953125 1.0625 0.828125 1.0625 0.578125 L 1.0625 0.4375 L 0.234375 0.4375 L 0.234375 0.5625 C 0.234375 0.820312 0.375 0.953125 0.65625 0.953125 Z M 0.65625 0.953125 "/></g></g><g transform="translate(6.139563, 19.399754)"><g><path d="M 0 1.21875 L 0 0.953125 L 0.5625 0.953125 L 0.5625 0.4375 L 0 0.4375 L 0 0.15625 L 1.296875 0.15625 L 1.296875 0.4375 L 0.78125 0.4375 L 0.78125 0.953125 L 1.296875 0.953125 L 1.296875 1.21875 Z M 0 1.21875 "/></g></g><g transform="translate(6.139563, 20.780978)"><g><path d="M 0 0.15625 L 1.296875 0.15625 L 1.296875 0.4375 L 0 0.4375 Z M 0 0.15625 "/></g></g><g transform="translate(6.139563, 21.378597)"><g/></g><g transform="translate(6.139563, 21.847526)"><g><path d="M 0 1.203125 L 0 0.890625 L 0.546875 0.546875 L 0.46875 0.4375 L 0 0.4375 L 0 0.15625 L 1.296875 0.15625 L 1.296875 0.4375 L 0.703125 0.4375 L 0.859375 0.546875 L 1.296875 0.890625 L 1.296875 1.203125 L 0.71875 0.75 Z M 0 1.203125 "/></g></g><g transform="translate(6.139563, 23.046291)"><g><path d="M 0 0.953125 L 0.3125 0.859375 L 0.3125 0.390625 L 0 0.296875 L 0 0 L 1.296875 0.453125 L 1.296875 0.796875 L 0 1.25 Z M 0.53125 0.796875 C 0.8125 0.710938 0.96875 0.660156 1 0.640625 C 1.039062 0.628906 1.070312 0.625 1.09375 0.625 C 1.019531 0.601562 0.832031 0.546875 0.53125 0.453125 Z M 0.53125 0.796875 "/></g></g><g transform="translate(6.139563, 24.291772)"><g><path d="M 0 0.15625 L 1.296875 0.15625 L 1.296875 0.4375 L 0.234375 0.4375 L 0.234375 0.96875 L 0 0.96875 Z M 0 0.15625 "/></g></g><g transform="translate(6.139563, 25.311604)"><g><path d="M 0 0.15625 L 1.296875 0.15625 L 1.296875 0.4375 L 0 0.4375 Z M 0 0.15625 "/></g></g><g transform="translate(6.139563, 25.909224)"><g><path d="M 0.359375 0.921875 C 0.242188 0.921875 0.148438 0.878906 0.078125 0.796875 C 0.015625 0.710938 -0.015625 0.597656 -0.015625 0.453125 C -0.015625 0.316406 0.0078125 0.191406 0.0625 0.078125 L 0.3125 0.078125 C 0.269531 0.171875 0.238281 0.242188 0.21875 0.296875 C 0.207031 0.359375 0.203125 0.414062 0.203125 0.46875 C 0.203125 0.53125 0.210938 0.578125 0.234375 0.609375 C 0.265625 0.640625 0.300781 0.65625 0.34375 0.65625 C 0.375 0.65625 0.394531 0.644531 0.40625 0.625 C 0.425781 0.613281 0.445312 0.59375 0.46875 0.5625 C 0.488281 0.539062 0.519531 0.488281 0.5625 0.40625 C 0.59375 0.320312 0.625 0.257812 0.65625 0.21875 C 0.695312 0.1875 0.738281 0.15625 0.78125 0.125 C 0.832031 0.101562 0.882812 0.09375 0.9375 0.09375 C 1.050781 0.09375 1.140625 0.128906 1.203125 0.203125 C 1.273438 0.285156 1.3125 0.394531 1.3125 0.53125 C 1.3125 0.601562 1.300781 0.671875 1.28125 0.734375 C 1.269531 0.796875 1.25 0.859375 1.21875 0.921875 L 1.015625 0.828125 C 1.035156 0.765625 1.050781 0.707031 1.0625 0.65625 C 1.070312 0.613281 1.078125 0.570312 1.078125 0.53125 C 1.078125 0.476562 1.066406 0.4375 1.046875 0.40625 C 1.023438 0.375 0.992188 0.359375 0.953125 0.359375 C 0.929688 0.359375 0.910156 0.363281 0.890625 0.375 C 0.867188 0.394531 0.847656 0.414062 0.828125 0.4375 C 0.816406 0.457031 0.789062 0.515625 0.75 0.609375 C 0.6875 0.734375 0.625 0.816406 0.5625 0.859375 C 0.507812 0.898438 0.441406 0.921875 0.359375 0.921875 Z M 0.359375 0.921875 "/></g></g><g transform="translate(6.139563, 26.903493)"><g><path d="M 0 0.65625 L 0 0.390625 L 1.0625 0.390625 L 1.0625 0.03125 L 1.296875 0.03125 L 1.296875 1.015625 L 1.0625 1.015625 L 1.0625 0.65625 Z M 0 0.65625 "/></g></g><g transform="translate(6.139563, 27.948887)"><g><path d="M 0 0.90625 L 0 0.15625 L 1.296875 0.15625 L 1.296875 0.90625 L 1.0625 0.90625 L 1.0625 0.4375 L 0.78125 0.4375 L 0.78125 0.875 L 0.5625 0.875 L 0.5625 0.4375 L 0.234375 0.4375 L 0.234375 0.90625 Z M 0 0.90625 "/></g></g><g transform="translate(6.139563, 28.959904)"><g><path d="M 0 1.3125 L 0 0.96875 L 0.984375 0.40625 L 0.984375 0.390625 C 0.804688 0.398438 0.679688 0.40625 0.609375 0.40625 L 0 0.40625 L 0 0.15625 L 1.296875 0.15625 L 1.296875 0.515625 L 0.328125 1.078125 C 0.492188 1.066406 0.613281 1.0625 0.6875 1.0625 L 1.296875 1.0625 L 1.296875 1.3125 Z M 0 1.3125 "/></g></g><g transform="translate(6.139563, 30.42751)"><g><path d="M 0 0.15625 L 1.296875 0.15625 L 1.296875 0.4375 L 0 0.4375 Z M 0 0.15625 "/></g></g><g transform="translate(6.139563, 31.025129)"><g><path d="M 0 1.203125 L 0 0.890625 L 0.546875 0.546875 L 0.46875 0.4375 L 0 0.4375 L 0 0.15625 L 1.296875 0.15625 L 1.296875 0.4375 L 0.703125 0.4375 L 0.859375 0.546875 L 1.296875 0.890625 L 1.296875 1.203125 L 0.71875 0.75 Z M 0 1.203125 "/></g></g></g></svg>