<svg xmlns="http://www.w3.org/2000/svg" xmlns:xlink="http://www.w3.org/1999/xlink" width="70" zoomAndPan="magnify" viewBox="0 0 52.5 36.75" height="49" preserveAspectRatio="xMidYMid meet" version="1.0"><defs><g/><clipPath id="aa7ef043ff"><path d="M 0 0.0507812 L 52.003906 0.0507812 L 52.003906 36.453125 L 0 36.453125 Z M 0 0.0507812 " clip-rule="nonzero"/></clipPath><clipPath id="361689f07e"><path d="M 0 0.0507812 L 16 0.0507812 L 16 18 L 0 18 Z M 0 0.0507812 " clip-rule="nonzero"/></clipPath><clipPath id="94a517bb79"><path d="M 10 0.0507812 L 24 0.0507812 L 24 11 L 10 11 Z M 10 0.0507812 " clip-rule="nonzero"/></clipPath><clipPath id="6aa2b97753"><path d="M 0 0.0507812 L 20 0.0507812 L 20 22 L 0 22 Z M 0 0.0507812 " clip-rule="nonzero"/></clipPath><clipPath id="cec984f86e"><path d="M 6 0.0507812 L 28 0.0507812 L 28 15 L 6 15 Z M 6 0.0507812 " clip-rule="nonzero"/></clipPath><clipPath id="b59aca6a06"><path d="M 5 0.0507812 L 51.867188 0.0507812 L 51.867188 31.96875 L 5 31.96875 Z M 5 0.0507812 " clip-rule="nonzero"/></clipPath><clipPath id="50545caf51"><path d="M 1 0.0507812 L 51.867188 0.0507812 L 51.867188 31.96875 L 1 31.96875 Z M 1 0.0507812 " clip-rule="nonzero"/></clipPath><clipPath id="151d841ee2"><path d="M 15 8 L 46 8 L 46 31.96875 L 15 31.96875 Z M 15 8 " clip-rule="nonzero"/></clipPath><clipPath id="903b7cb0df"><path d="M 11 4 L 50 4 L 50 31.96875 L 11 31.96875 Z M 11 4 " clip-rule="nonzero"/></clipPath><clipPath id="30f31733ac"><path d="M 4 32 L 24 32 L 24 36.453125 L 4 36.453125 Z M 4 32 " clip-rule="nonzero"/></clipPath><clipPath id="946098fa8a"><path d="M 0.515625 1 L 4 1 L 4 4.453125 L 0.515625 4.453125 Z M 0.515625 1 " clip-rule="nonzero"/></clipPath><clipPath id="544014951c"><path d="M 3 1 L 6 1 L 6 4.453125 L 3 4.453125 Z M 3 1 " clip-rule="nonzero"/></clipPath><clipPath id="725482b944"><path d="M 6 1 L 9 1 L 9 4.453125 L 6 4.453125 Z M 6 1 " clip-rule="nonzero"/></clipPath><clipPath id="bf58163a81"><path d="M 8 1 L 11 1 L 11 4.453125 L 8 4.453125 Z M 8 1 " clip-rule="nonzero"/></clipPath><clipPath id="590ca809ea"><path d="M 11 1 L 13 1 L 13 4.453125 L 11 4.453125 Z M 11 1 " clip-rule="nonzero"/></clipPath><clipPath id="5f7373ee5f"><path d="M 12 4 L 13 4 L 13 4.453125 L 12 4.453125 Z M 12 4 " clip-rule="nonzero"/></clipPath><clipPath id="034264cd56"><path d="M 13 1 L 16 1 L 16 4.453125 L 13 4.453125 Z M 13 1 " clip-rule="nonzero"/></clipPath><clipPath id="303c40f575"><path d="M 15 1 L 17 1 L 17 4.453125 L 15 4.453125 Z M 15 1 " clip-rule="nonzero"/></clipPath><clipPath id="59b3bb073d"><path d="M 16 1 L 19 1 L 19 4.453125 L 16 4.453125 Z M 16 1 " clip-rule="nonzero"/></clipPath><clipPath id="87c93fc309"><rect x="0" width="20" y="0" height="5"/></clipPath><clipPath id="4b07ae1bf4"><rect x="0" width="53" y="0" height="37"/></clipPath></defs><g clip-path="url(#aa7ef043ff)"><path fill="#ffffff" d="M 0 0.0507812 L 52.003906 0.0507812 L 52.003906 36.453125 L 0 36.453125 Z M 0 0.0507812 " fill-opacity="1" fill-rule="nonzero"/><path fill="#ffffff" d="M 0 0.0507812 L 52.003906 0.0507812 L 52.003906 36.453125 L 0 36.453125 Z M 0 0.0507812 " fill-opacity="1" fill-rule="nonzero"/><g transform="matrix(1, 0, 0, 1, 0, -0.00000000000000161)"><g clip-path="url(#4b07ae1bf4)"><g clip-path="url(#361689f07e)"><path fill="#0a0a0a" d="M 0.722656 0.773438 L 12.296875 17.414062 L 15.804688 12.390625 L 7.738281 0.773438 Z M 0.722656 0.773438 " fill-opacity="1" fill-rule="nonzero"/></g><g clip-path="url(#94a517bb79)"><path fill="#0a0a0a" d="M 23.828125 0.773438 L 10.621094 0.773438 L 17.246094 10.3125 Z M 23.828125 0.773438 " fill-opacity="1" fill-rule="nonzero"/></g><g clip-path="url(#6aa2b97753)"><path stroke-linecap="butt" transform="matrix(0.720292, 0, 0, 0.725424, 0.00339227, 0.0495293)" fill="none" stroke-linejoin="miter" d="M 0.998573 0.997911 L 17.067362 23.937088 L 21.937349 17.012257 L 10.738547 0.997911 Z M 0.998573 0.997911 " stroke="#000000" stroke-width="1" stroke-opacity="1" stroke-miterlimit="4"/></g><g clip-path="url(#cec984f86e)"><path stroke-linecap="butt" transform="matrix(0.720292, 0, 0, 0.725424, 0.00339227, 0.0495293)" fill="none" stroke-linejoin="miter" d="M 33.076496 0.997911 L 14.740831 0.997911 L 23.938491 14.147552 Z M 33.076496 0.997911 " stroke="#000000" stroke-width="1" stroke-opacity="1" stroke-miterlimit="4"/></g><g clip-path="url(#b59aca6a06)"><path fill="#0a0a0a" d="M 5.476562 31.265625 L 12.53125 31.265625 L 29.675781 6.542969 L 47.054688 6.542969 L 51.144531 0.773438 L 26.714844 0.773438 Z M 5.476562 31.265625 " fill-opacity="1" fill-rule="nonzero"/></g><g clip-path="url(#50545caf51)"><path stroke-linecap="butt" transform="matrix(0.720292, 0, 0, 0.725424, 0.00339227, 0.0495293)" fill="none" stroke-linejoin="miter" d="M 7.598544 43.03153 L 17.39275 43.03153 L 41.194949 8.951236 L 65.322536 8.951236 L 71.000572 0.997911 L 37.084202 0.997911 Z M 7.598544 43.03153 " stroke="#000000" stroke-width="1" stroke-opacity="1" stroke-miterlimit="4"/></g><g clip-path="url(#151d841ee2)"><path fill="#0a0a0a" d="M 30.921875 8.9375 L 45.417969 8.9375 L 41.441406 14.746094 L 33.921875 14.746094 L 22.464844 31.265625 L 15.335938 31.265625 Z M 30.921875 8.9375 " fill-opacity="1" fill-rule="nonzero"/></g><g clip-path="url(#903b7cb0df)"><path stroke-linecap="butt" transform="matrix(0.720292, 0, 0, 0.725424, 0.00339227, 0.0495293)" fill="none" stroke-linejoin="miter" d="M 42.924933 12.252108 L 63.050237 12.252108 L 57.529472 20.259281 L 47.089911 20.259281 L 31.183817 43.03153 L 21.286571 43.03153 Z M 42.924933 12.252108 " stroke="#000000" stroke-width="1" stroke-opacity="1" stroke-miterlimit="4"/></g><g clip-path="url(#30f31733ac)"><g transform="matrix(1, 0, 0, 1, 4, 32)"><g clip-path="url(#87c93fc309)"><g clip-path="url(#946098fa8a)"><g fill="#000000" fill-opacity="1"><g transform="translate(0.572524, 4.184408)"><g><path d="M 0.96875 0 L 0.96875 -0.890625 L 0.03125 -2.53125 L 0.6875 -2.53125 L 1 -1.9375 L 1.25 -1.484375 L 1.5 -1.9375 L 1.8125 -2.53125 L 2.46875 -2.53125 L 1.53125 -0.890625 L 1.53125 0 Z M 0.96875 0 "/></g></g></g></g><g clip-path="url(#544014951c)"><g fill="#000000" fill-opacity="1"><g transform="translate(3.073589, 4.184408)"><g><path d="M 1.328125 0.046875 C 1.109375 0.046875 0.921875 0.00390625 0.765625 -0.078125 C 0.609375 -0.171875 0.488281 -0.296875 0.40625 -0.453125 C 0.320312 -0.617188 0.28125 -0.816406 0.28125 -1.046875 L 0.28125 -2.53125 L 0.859375 -2.53125 L 0.859375 -1.078125 C 0.859375 -0.691406 1.015625 -0.5 1.328125 -0.5 C 1.648438 -0.5 1.8125 -0.691406 1.8125 -1.078125 L 1.8125 -2.53125 L 2.390625 -2.53125 L 2.390625 -1.046875 C 2.390625 -0.816406 2.347656 -0.617188 2.265625 -0.453125 C 2.179688 -0.296875 2.054688 -0.171875 1.890625 -0.078125 C 1.734375 0.00390625 1.546875 0.046875 1.328125 0.046875 Z M 1.328125 0.046875 "/></g></g></g></g><g clip-path="url(#725482b944)"><g fill="#000000" fill-opacity="1"><g transform="translate(5.748139, 4.184408)"><g><path d="M 0.296875 0 L 0.296875 -2.53125 L 1.296875 -2.53125 C 1.566406 -2.53125 1.800781 -2.472656 2 -2.359375 C 2.195312 -2.253906 2.351562 -2.109375 2.46875 -1.921875 C 2.582031 -1.734375 2.640625 -1.515625 2.640625 -1.265625 C 2.640625 -1.015625 2.582031 -0.789062 2.46875 -0.59375 C 2.351562 -0.40625 2.195312 -0.257812 2 -0.15625 C 1.800781 -0.0507812 1.566406 0 1.296875 0 Z M 0.875 -0.53125 L 1.296875 -0.53125 C 1.441406 -0.53125 1.570312 -0.5625 1.6875 -0.625 C 1.800781 -0.6875 1.890625 -0.769531 1.953125 -0.875 C 2.015625 -0.988281 2.046875 -1.117188 2.046875 -1.265625 C 2.046875 -1.410156 2.015625 -1.535156 1.953125 -1.640625 C 1.890625 -1.753906 1.800781 -1.84375 1.6875 -1.90625 C 1.570312 -1.96875 1.4375 -2 1.28125 -2 L 0.875 -2 Z M 0.875 -0.53125 "/></g></g></g></g><g clip-path="url(#bf58163a81)"><g fill="#000000" fill-opacity="1"><g transform="translate(8.538345, 4.184408)"><g><path d="M 1.859375 0 L 1.859375 -1.015625 L 0.875 -1.015625 L 0.875 0 L 0.296875 0 L 0.296875 -2.53125 L 0.875 -2.53125 L 0.875 -1.5625 L 1.859375 -1.5625 L 1.859375 -2.53125 L 2.4375 -2.53125 L 2.4375 0 Z M 1.859375 0 "/></g></g></g></g><g clip-path="url(#590ca809ea)"><g fill="#000000" fill-opacity="1"><g transform="translate(11.285181, 4.184408)"><g><path d="M 0.296875 0 L 0.296875 -2.53125 L 0.875 -2.53125 L 0.875 0 Z M 0.296875 0 "/></g></g></g></g><g clip-path="url(#5f7373ee5f)"><g fill="#000000" fill-opacity="1"><g transform="translate(12.467042, 4.184408)"><g/></g></g></g><g clip-path="url(#034264cd56)"><g fill="#000000" fill-opacity="1"><g transform="translate(13.316392, 4.184408)"><g><path d="M 0.296875 0 L 0.296875 -2.53125 L 1.890625 -2.53125 L 1.890625 -2 L 0.875 -2 L 0.875 -1.375 L 1.796875 -1.375 L 1.796875 -0.875 L 0.875 -0.875 L 0.875 0 Z M 0.296875 0 "/></g></g></g></g><g clip-path="url(#303c40f575)"><g fill="#000000" fill-opacity="1"><g transform="translate(15.365675, 4.184408)"><g><path d="M 0.296875 0 L 0.296875 -2.53125 L 0.875 -2.53125 L 0.875 0 Z M 0.296875 0 "/></g></g></g></g><g clip-path="url(#59b3bb073d)"><g fill="#000000" fill-opacity="1"><g transform="translate(16.547536, 4.184408)"><g><path d="M 0.90625 0 L 0.90625 -1.984375 L 0.109375 -1.984375 L 0.109375 -2.53125 L 2.28125 -2.53125 L 2.28125 -1.984375 L 1.484375 -1.984375 L 1.484375 0 Z M 0.90625 0 "/></g></g></g></g></g></g></g></g></g></g></svg>