<svg width="973" height="639" viewBox="0 0 973 639" fill="none" xmlns="http://www.w3.org/2000/svg">
<path d="M750.379 528.723C751.173 430.151 752.442 271.807 752.442 248.372C752.442 213.987 710.517 110.999 637.179 110.999C556.835 110.999 517.132 223.304 464.542 223.304C416.341 223.304 412.54 193.577 352.873 193.577C313.995 193.577 234 254.267 234 316.309L287.248 528.675L750.379 528.723Z" fill="url(#paint0_linear)"/>
<path d="M375.95 553.707C375.252 555.565 368.463 580.023 367.15 581.193C365.838 582.364 329.079 599.251 329.079 599.251L331.573 604.843C331.573 604.843 370.094 593.943 372.089 592.979C374.084 592.015 389.27 580.205 391.586 575.243C393.901 570.282 378.61 553.639 375.95 553.707Z" fill="#FC7031"/>
<path d="M412.381 620.153C412.381 620.987 411.802 626.251 412.956 626.736C414.111 627.222 426.801 627.518 427.376 627.029C427.952 626.539 428.302 625.518 427.793 625.226C427.285 624.934 422.375 624.106 421.708 623.716C421.042 623.325 420.12 621.251 420.458 620.153" fill="#FC7031"/>
<path d="M532.49 581.183C532.49 582.017 531.911 587.281 533.065 587.766C534.22 588.252 546.911 588.548 547.486 588.059C548.061 587.569 548.411 586.548 547.902 586.256C547.394 585.964 542.484 585.136 541.818 584.746C541.151 584.355 540.23 582.281 540.567 581.183" fill="#FC7031"/>
<path d="M411.326 539.572C410.513 539.773 403.983 541.147 403.306 541.147C402.628 541.147 401.681 546.695 402.358 546.639C403.036 546.584 411.598 544.41 413.73 544.238C415.861 544.066 411.326 539.572 411.326 539.572Z" fill="#F8CDBA"/>
<path d="M535.479 507.494C534.666 507.694 528.136 509.068 527.459 509.068C526.781 509.068 525.834 514.617 526.512 514.561C527.189 514.505 535.751 512.332 537.883 512.159C540.015 511.987 535.479 507.494 535.479 507.494Z" fill="#F8CDBA"/>
<path d="M388.119 515.094C392.817 514.7 401.488 516.717 404.218 518.115C409.593 520.867 403.389 556.363 400.601 558.997C398.107 559.88 376.966 555.437 375.903 553.539C376.469 549.742 384.85 536.58 385.647 535.868C385.116 535.394 382.726 532.783 382.726 532.783C382.726 532.783 384.874 530.206 385.116 530.059C384.431 529.651 377.584 524.819 377.205 524.546C378.572 522.737 386.539 515.226 388.119 515.094Z" fill="#FC7031"/>
<path d="M395.079 545.8C394.708 545.006 383.305 533.289 382.894 532.818C383.516 532.058 384.546 530.891 385.392 530.016C382.137 527.93 378.643 525.562 377.386 524.605C377.362 524.629 377.352 524.655 377.328 524.68C376.759 525.278 371.689 531.948 371.689 532.886C371.689 533.823 387.207 547.099 389.144 547.748C391.082 548.398 395.45 546.597 395.079 545.8Z" fill="#F8CDBA"/>
<path d="M413.129 544.977C415.069 544.977 416.641 543.488 416.641 541.651C416.641 539.814 415.069 538.325 413.129 538.325C411.189 538.325 409.617 539.814 409.617 541.651C409.617 543.488 411.189 544.977 413.129 544.977Z" fill="#F8CDBA"/>
<path d="M400.699 559.155C400.699 559.155 411.591 577.912 413.257 581.811C414.924 585.711 418.982 620.391 418.982 620.391C418.982 620.391 413.556 620.954 412.097 620.391C410.637 619.829 404.587 594.6 401.251 589.429C396.172 581.57 368.585 566.914 375.648 553.707" fill="#FF905F"/>
<path d="M328.959 597.924C327.933 598.303 321.219 600.153 321.12 601.437C321.022 602.722 326.121 614.546 326.969 614.853C327.816 615.161 329.221 615.024 329.357 614.413C329.492 613.801 328.42 608.912 328.593 608.122C328.767 607.332 330.935 605.549 332.438 605.366" fill="#FC7031"/>
<path d="M465.322 561.784C464.296 562.162 457.582 564.012 457.483 565.297C457.385 566.581 462.484 578.405 463.332 578.713C464.179 579.02 465.584 578.883 465.72 578.272C465.856 577.661 464.783 572.772 464.957 571.982C465.13 571.192 467.298 569.408 468.801 569.225" fill="#FC7031"/>
<path d="M397.766 516.024C401.136 516.024 403.867 512.322 403.867 507.755C403.867 503.189 401.136 499.486 397.766 499.486C394.396 499.486 391.665 503.189 391.665 507.755C391.665 512.322 394.396 516.024 397.766 516.024Z" fill="#DC8E6C"/>
<path d="M387.142 504.346C387.142 501.798 388.392 500.189 389.408 499.678C391.37 498.68 392.189 499.125 394.165 498.347C396.305 497.516 398.141 495.088 400.646 495.088C402.987 495.088 402.776 496.269 404.364 496.618C405.3 496.822 410.619 495.736 410.619 498.792C410.619 503.498 404.734 503.881 403.371 504.484C403.167 503.942 402.929 503.41 402.659 502.891C401.587 503.872 397.705 504.554 397.078 504.775C395.626 505.307 394.933 507.323 394.933 508.641C394.933 509.959 393.589 509.963 393.252 509.963C390.148 509.963 387.142 508.196 387.142 504.346Z" fill="#FC7031"/>
<path d="M503.422 521.517C502.851 523.192 497.297 545.243 496.223 546.298C495.149 547.353 465.076 562.579 465.076 562.579L467.117 567.621C467.117 567.621 498.631 557.794 500.263 556.924C501.895 556.055 514.32 545.407 516.214 540.934C518.108 536.46 505.598 521.455 503.422 521.517Z" fill="#FF905F"/>
<path d="M513.484 486.909C517.354 486.554 524.495 488.37 526.744 489.628C531.172 492.106 526.062 524.059 523.765 526.431C521.711 527.225 504.297 523.226 503.422 521.517C503.888 518.099 510.791 506.251 511.447 505.61C511.01 505.183 509.041 502.833 509.041 502.833C509.041 502.833 510.811 500.513 511.01 500.38C510.446 500.013 504.806 495.663 504.494 495.418C505.62 493.79 512.182 487.028 513.484 486.909Z" fill="#FF905F"/>
<path d="M519.038 514.659C518.734 513.935 509.387 503.258 509.05 502.828C509.56 502.136 510.404 501.072 511.098 500.275C508.429 498.374 505.566 496.216 504.535 495.345C504.516 495.366 504.507 495.39 504.487 495.413C504.021 495.958 499.865 502.036 499.865 502.89C499.865 503.745 512.585 515.843 514.173 516.434C515.761 517.026 519.342 515.386 519.038 514.659Z" fill="#F8CDBA"/>
<path d="M537.959 512.084C539.626 512.084 540.978 510.764 540.978 509.136C540.978 507.508 539.626 506.188 537.959 506.188C536.292 506.188 534.94 507.508 534.94 509.136C534.94 510.764 536.292 512.084 537.959 512.084Z" fill="#F8CDBA"/>
<path d="M517.543 520.409C519.21 520.409 520.562 519.09 520.562 517.461C520.562 515.833 519.21 514.513 517.543 514.513C515.876 514.513 514.525 515.833 514.525 517.461C514.525 519.09 515.876 520.409 517.543 520.409Z" fill="#F8CDBA"/>
<path d="M393.646 550.771C395.313 550.771 396.665 549.451 396.665 547.823C396.665 546.195 395.313 544.875 393.646 544.875C391.979 544.875 390.628 546.195 390.628 547.823C390.628 549.451 391.979 550.771 393.646 550.771Z" fill="#F8CDBA"/>
<path d="M523.765 526.43C523.765 526.43 532.613 543.384 533.967 546.909C535.321 550.434 538.618 581.78 538.618 581.78C538.618 581.78 534.21 582.288 533.024 581.78C531.839 581.272 526.924 558.468 524.213 553.794C520.088 546.691 497.678 533.444 503.415 521.506" fill="#FC7031"/>
<path d="M522.071 489.538C525.422 489.538 528.138 485.116 528.138 479.662C528.138 474.208 525.422 469.786 522.071 469.786C518.72 469.786 516.004 474.208 516.004 479.662C516.004 485.116 518.72 489.538 522.071 489.538Z" fill="#DC8E6C"/>
<path d="M508.833 476.27C508.833 473.721 510.083 472.112 511.1 471.601C513.061 470.603 513.881 471.048 515.857 470.27C517.997 469.439 519.832 467.011 522.337 467.011C524.679 467.011 524.468 468.192 526.055 468.541C526.992 468.745 532.311 467.66 532.311 470.715C532.311 475.421 526.425 475.804 525.063 476.407C524.858 475.865 524.621 475.333 524.351 474.814C523.279 475.796 519.397 476.477 518.769 476.698C517.318 477.23 516.625 479.246 516.625 480.564C516.625 481.882 515.281 481.886 514.944 481.886C511.839 481.886 508.833 480.119 508.833 476.27Z" fill="#FC7031"/>
<path d="M611.705 504.066L585.809 537.048L563.295 560.468C563.295 561.411 567.388 565.289 568.015 565.289C569.552 564.66 628.195 521.924 628.195 521.924L611.705 504.066Z" fill="#FC7031"/>
<path d="M617.637 484.627C616.579 484.724 604.638 484.993 604.638 484.993C604.638 484.993 589.085 487.133 586.961 486.754C585.664 486.522 584.308 492.604 585.941 491.846C588.463 490.661 605.06 491.095 606.331 491.147C607.601 491.2 618.513 492.113 618.906 492.193C619.299 492.274 617.637 484.627 617.637 484.627Z" fill="#F8CDBA"/>
<path d="M642.164 500.956C642.832 501.861 652.086 506.65 653.329 506.551C654.571 506.453 661.006 491.435 662.431 489.978C662.739 489.67 658.91 486.804 658.833 487.664C658.699 489.196 651.533 498.727 651.533 498.727L646.783 496.011L642.164 500.956Z" fill="#F8CDBA"/>
<path d="M637.699 490.82C640.152 488.196 647.789 494.215 647.98 495.585C648.264 497.616 642.766 501.962 641.45 501.86C640.134 501.758 635.361 493.325 637.699 490.82Z" fill="#FFC78E"/>
<path d="M637.284 485.713C647.428 490.815 636.478 509.154 631.515 510.879C628.858 511.805 613.529 504.706 613.364 502.38C613.199 500.055 625.458 479.766 637.284 485.713Z" fill="#FC7031"/>
<path d="M631.689 487.279C632.824 493.374 619.158 493.79 618.289 493.219C617.42 492.648 616.343 485.434 617.42 484.191C619.855 483.62 630.978 483.455 631.689 487.279Z" fill="#FFE4AD"/>
<path d="M613.363 502.38C594.991 514.842 622.729 529.232 638.567 523.442C638.236 525.55 635.695 545.756 635.695 545.756L642.008 547.555C642.008 547.555 657.488 519.005 654.738 512.718C653.84 510.661 622.984 505.02 617.134 505.584C615.736 504.716 613.464 503.341 613.363 502.38Z" fill="#FF905F"/>
<path d="M636.308 545.617L633.115 550.637L645.041 559.381L646.657 557.537L641.387 547.393L636.308 545.617Z" fill="#FC7031"/>
<path d="M564.115 561.397L559.415 564.64L562.445 576.657L565.221 576.154L567.599 564.691L564.115 561.397Z" fill="#FC7031"/>
<path d="M664.186 488.412C665.021 486.574 664.521 484.663 663.07 484.144C661.619 483.624 659.766 484.692 658.931 486.53C658.096 488.368 658.596 490.279 660.047 490.799C661.498 491.318 663.351 490.25 664.186 488.412Z" fill="#F8CDBA"/>
<path d="M585.108 492.068C587.303 492.068 589.083 490.699 589.083 489.01C589.083 487.32 587.303 485.951 585.108 485.951C582.913 485.951 581.133 487.32 581.133 489.01C581.133 490.699 582.913 492.068 585.108 492.068Z" fill="#F8CDBA"/>
<path d="M650.751 479.748C651.778 475.964 649.766 472.288 646.257 471.537C642.748 470.786 639.071 473.245 638.044 477.029C637.017 480.813 639.029 484.49 642.538 485.241C646.047 485.991 649.724 483.532 650.751 479.748Z" fill="#E49D75"/>
<path d="M650.861 476.287C650.357 473.929 648.665 472.051 646.255 471.537C642.745 470.786 639.067 473.246 638.04 477.028C638.019 477.11 638 477.192 637.981 477.272C640.887 478.216 647.749 477.835 650.861 476.287Z" fill="#FC7031"/>
<path d="M638.596 478.11C638.431 479.135 634.977 484.658 633.698 485.479C633.614 486.828 637.15 489.053 638.836 488.675C639.522 487.132 640.697 485.008 641.726 484.141C642.755 483.274 638.596 478.11 638.596 478.11Z" fill="#E49D75"/>
<path d="M644.841 471.653C644.841 468.491 640.913 466.521 638.607 466.521C631.955 466.521 632.111 475.708 623.579 475.708C622.817 475.708 622.475 475.593 621.582 475.769C621.582 478.654 625.598 481.158 628.237 481.158C635.553 481.158 636.662 471.898 641.183 471.898C641.878 471.898 642.796 472.375 642.796 472.375L644.841 471.653Z" fill="#FC7031"/>
<path d="M641.416 478.506C641.819 477.607 641.423 476.623 640.531 476.308C639.639 475.993 638.589 476.466 638.187 477.365C637.784 478.264 638.18 479.248 639.072 479.563C639.964 479.878 641.014 479.405 641.416 478.506Z" fill="#E49D75"/>
<g filter="url(#filter0_b)">
<path d="M351.608 275.627C351.435 278.383 350.436 280.56 348.612 282.16C346.799 283.759 344.392 284.573 341.392 284.602C338.111 284.633 335.517 283.556 333.609 281.371C331.713 279.174 330.747 276.148 330.71 272.292L330.696 270.728C330.672 268.267 331.085 266.095 331.935 264.212C332.784 262.329 334.007 260.882 335.603 259.87C337.21 258.847 339.08 258.326 341.213 258.305C344.166 258.277 346.552 259.046 348.372 260.61C350.191 262.175 351.255 264.386 351.564 267.243L346.291 267.293C346.146 265.642 345.672 264.451 344.868 263.72C344.076 262.978 342.871 262.614 341.254 262.629C339.496 262.646 338.184 263.291 337.317 264.565C336.462 265.827 336.035 267.783 336.037 270.431L336.055 272.365C336.081 275.13 336.517 277.148 337.361 278.417C338.217 279.686 339.547 280.312 341.351 280.295C342.98 280.28 344.19 279.899 344.979 279.153C345.781 278.396 346.233 277.237 346.335 275.677L351.608 275.627ZM369.55 278.709L360.305 278.797L358.597 284.087L352.99 284.14L362.274 258.457L367.16 258.41L376.983 283.912L371.376 283.965L369.55 278.709ZM361.688 274.512L368.086 274.451L364.779 264.902L361.688 274.512ZM384.607 279.603L395.803 279.497L395.844 283.733L379.374 283.889L379.131 258.297L384.404 258.247L384.607 279.603ZM404.492 283.651L399.218 283.701L398.975 258.108L404.249 258.058L404.492 283.651ZM422.603 276.764C422.593 275.768 422.235 275.009 421.526 274.489C420.818 273.956 419.547 273.406 417.714 272.837C415.88 272.257 414.427 271.685 413.355 271.121C410.434 269.578 408.961 267.477 408.936 264.817C408.923 263.434 409.298 262.2 410.061 261.115C410.836 260.017 411.947 259.157 413.394 258.534C414.853 257.911 416.491 257.591 418.307 257.573C420.135 257.556 421.767 257.874 423.203 258.529C424.639 259.171 425.755 260.093 426.552 261.292C427.36 262.491 427.771 263.859 427.786 265.394L422.513 265.444C422.502 264.272 422.124 263.367 421.38 262.73C420.635 262.081 419.595 261.762 418.259 261.775C416.97 261.787 415.971 262.072 415.261 262.63C414.552 263.176 414.201 263.894 414.209 264.784C414.217 265.616 414.64 266.31 415.477 266.864C416.326 267.419 417.568 267.934 419.201 268.411C422.209 269.285 424.406 270.383 425.789 271.706C427.173 273.029 427.874 274.686 427.893 276.678C427.914 278.893 427.093 280.641 425.429 281.923C423.765 283.193 421.516 283.841 418.68 283.868C416.711 283.887 414.915 283.546 413.291 282.847C411.667 282.135 410.421 281.157 409.554 279.911C408.698 278.665 408.263 277.216 408.247 275.564L413.538 275.514C413.565 278.338 415.265 279.734 418.64 279.702C419.894 279.69 420.87 279.429 421.568 278.918C422.267 278.396 422.611 277.678 422.603 276.764ZM450.605 261.89L442.766 261.964L442.968 283.286L437.695 283.336L437.493 262.014L429.759 262.088L429.718 257.817L450.565 257.619L450.605 261.89ZM474.66 282.985L469.387 283.035L469.283 272.067L459 272.164L459.104 283.132L453.831 283.183L453.588 257.59L458.861 257.54L458.96 267.91L469.243 267.813L469.144 257.442L474.417 257.392L474.66 282.985ZM494.576 271.703L484.451 271.799L484.516 278.655L496.398 278.542L496.439 282.778L479.283 282.941L479.04 257.348L496.16 257.186L496.201 261.457L484.354 261.569L484.412 267.669L494.536 267.573L494.576 271.703ZM520.344 282.551L515.071 282.601L504.646 265.859L504.805 282.699L499.532 282.749L499.289 257.156L504.562 257.106L515.005 273.883L514.845 257.008L520.101 256.958L520.344 282.551ZM530.556 282.454L525.283 282.504L525.04 256.912L530.313 256.861L530.556 282.454ZM555.47 273.692C555.297 276.447 554.298 278.625 552.474 280.224C550.66 281.824 548.254 282.638 545.254 282.666C541.973 282.697 539.379 281.62 537.471 279.435C535.575 277.238 534.609 274.212 534.572 270.357L534.558 268.792C534.534 266.332 534.947 264.16 535.796 262.276C536.646 260.393 537.868 258.946 539.464 257.935C541.072 256.912 542.942 256.39 545.075 256.37C548.028 256.342 550.414 257.11 552.234 258.675C554.053 260.24 555.117 262.45 555.426 265.307L550.153 265.357C550.008 263.706 549.534 262.515 548.73 261.784C547.938 261.042 546.733 260.678 545.116 260.694C543.358 260.71 542.046 261.356 541.179 262.63C540.324 263.892 539.897 265.847 539.899 268.496L539.917 270.429C539.943 273.195 540.378 275.212 541.223 276.481C542.078 277.751 543.409 278.377 545.213 278.36C546.842 278.344 548.051 277.964 548.841 277.218C549.643 276.46 550.095 275.301 550.197 273.742L555.47 273.692ZM572.221 275.343C572.212 274.347 571.853 273.589 571.145 273.068C570.436 272.536 569.166 271.985 567.332 271.417C565.498 270.837 564.045 270.264 562.974 269.7C560.053 268.158 558.58 266.056 558.554 263.396C558.541 262.014 558.916 260.78 559.679 259.694C560.454 258.597 561.565 257.737 563.012 257.114C564.471 256.49 566.109 256.17 567.925 256.153C569.753 256.135 571.385 256.454 572.821 257.108C574.257 257.751 575.373 258.672 576.17 259.872C576.978 261.071 577.39 262.438 577.404 263.973L572.131 264.023C572.12 262.852 571.742 261.947 570.998 261.309C570.253 260.66 569.213 260.342 567.877 260.355C566.588 260.367 565.589 260.652 564.879 261.209C564.17 261.755 563.819 262.473 563.828 263.364C563.836 264.196 564.258 264.889 565.095 265.444C565.945 265.998 567.186 266.514 568.819 266.99C571.828 267.864 574.024 268.963 575.408 270.285C576.791 271.608 577.493 273.266 577.511 275.258C577.532 277.473 576.711 279.221 575.047 280.502C573.384 281.772 571.134 282.42 568.298 282.447C566.329 282.466 564.533 282.126 562.909 281.426C561.285 280.715 560.04 279.737 559.172 278.491C558.317 277.245 557.881 275.796 557.865 274.144L563.156 274.093C563.183 276.917 564.884 278.313 568.259 278.281C569.512 278.27 570.488 278.008 571.187 277.498C571.885 276.975 572.23 276.257 572.221 275.343ZM595.313 272.821L595.399 281.838L590.126 281.888L589.883 256.296L599.867 256.201C601.788 256.183 603.479 256.518 604.939 257.208C606.41 257.897 607.545 258.888 608.342 260.181C609.14 261.463 609.546 262.93 609.562 264.582C609.586 267.09 608.743 269.078 607.034 270.548C605.337 272.005 602.971 272.749 599.936 272.777L595.313 272.821ZM595.273 268.55L599.984 268.505C601.378 268.492 602.435 268.154 603.156 267.491C603.888 266.827 604.248 265.886 604.236 264.668C604.224 263.414 603.846 262.404 603.1 261.637C602.355 260.871 601.331 260.482 600.03 260.471L595.197 260.517L595.273 268.55ZM624.633 276.287L615.387 276.375L613.679 281.665L608.072 281.718L617.356 256.035L622.243 255.989L632.065 281.49L626.458 281.544L624.633 276.287ZM616.77 272.09L623.168 272.029L619.861 262.48L616.77 272.09ZM643.841 272.009L639.64 272.049L639.729 281.418L634.456 281.468L634.213 255.875L643.722 255.785C646.745 255.756 649.084 256.408 650.737 257.74C652.39 259.072 653.229 260.968 653.252 263.429C653.269 265.175 652.902 266.637 652.151 267.817C651.412 268.984 650.279 269.92 648.75 270.626L654.386 281.032L654.388 281.278L648.729 281.332L643.841 272.009ZM639.599 267.778L643.853 267.737C645.177 267.725 646.2 267.381 646.92 266.706C647.64 266.019 647.994 265.084 647.983 263.901C647.972 262.694 647.617 261.748 646.919 261.063C646.233 260.378 645.181 260.043 643.763 260.056L639.527 260.096L639.599 267.778ZM665.365 270.908L662.651 273.887L662.72 281.199L657.447 281.249L657.204 255.657L662.477 255.607L662.587 267.208L664.877 264.004L671.319 255.523L677.805 255.461L668.825 266.92L678.311 281.051L672.036 281.111L665.365 270.908Z" fill="#FC844F"/>
</g>
<path d="M789.254 473.378L823.615 407.43M789.254 602.335L809.985 562.016M789.254 386.046L823.615 320.098" stroke="#FEDEA8" stroke-width="3" stroke-miterlimit="10" stroke-linecap="round"/>
<path d="M116.911 152.806L0 635.965H233.822L116.911 152.806Z" fill="#FC844F"/>
<path d="M202.649 152.78L85.7374 635.939H319.56L202.649 152.78Z" fill="#FC844F"/>
<path d="M202.578 155.065L202.794 635.473" stroke="#FFEAB6" stroke-width="4" stroke-miterlimit="10" stroke-linecap="round"/>
<path d="M116.96 154.248L112.248 634.636" stroke="#FFEAB6" stroke-width="4" stroke-miterlimit="10" stroke-linecap="round"/>
<path d="M202.794 635.962L230.941 581.219" stroke="#FEDEA8" stroke-width="5" stroke-miterlimit="10" stroke-linecap="round"/>
<path d="M202.861 544.905L231.008 490.162M113.461 519.307L141.609 464.563" stroke="#FEDEA8" stroke-width="5" stroke-miterlimit="10" stroke-linecap="round"/>
<path d="M113.45 633.572L141.597 578.829M113.45 520.064L85.3027 465.321" stroke="#FEDEA8" stroke-width="5" stroke-miterlimit="10" stroke-linecap="round"/>
<path d="M202.861 454.798L216.445 427.263L231.008 400.054M114.429 429.199L128.503 401.827L142.577 374.456" stroke="#FEDEA8" stroke-width="5" stroke-miterlimit="10" stroke-linecap="round"/>
<path d="M113.521 428.353L99.9367 400.819L85.3733 373.61" stroke="#FEDEA8" stroke-width="5" stroke-miterlimit="10" stroke-linecap="round"/>
<path d="M202.794 357.592L230.941 302.849" stroke="#FEDEA8" stroke-width="5" stroke-miterlimit="10" stroke-linecap="round"/>
<path d="M202.794 635.962L174.647 581.219" stroke="#FEDEA8" stroke-width="5" stroke-miterlimit="10" stroke-linecap="round"/>
<path d="M787.365 535.794L759.218 481.05" stroke="#FEDEA8" stroke-width="3" stroke-miterlimit="10" stroke-linecap="round"/>
<path d="M202.496 357.561L176.278 306.464M112.116 632.981L83.969 578.238M789.417 426.774L761.27 372.03M202.956 455.014L174.809 400.492M202.496 541.611L174.35 486.868" stroke="#FEDEA8" stroke-width="5" stroke-miterlimit="10" stroke-linecap="round"/>
<circle cx="407.033" cy="122.825" r="0.244856" fill="#C4C4C4"/>
<circle cx="411.603" cy="122.989" r="0.244856" fill="#C4C4C4"/>
<path d="M785.313 73C788.657 59.2995 786.996 44.8502 780.63 32.2733C774.263 19.6964 763.614 9.825 750.614 4.44983C737.614 -0.925345 723.124 -1.44825 709.772 2.97599C696.42 7.40024 685.092 16.4785 677.841 28.5641C670.739 25.3454 662.945 23.9634 655.173 24.5444C647.401 25.1254 639.898 27.651 633.35 31.8902C626.802 36.1294 621.417 41.9472 617.687 48.8119C613.957 55.6767 612.002 63.3695 612 71.1876C612 71.8001 612 72.4375 612 73H785.313Z" fill="#FCA883"/>
<path d="M176.581 90C173.447 77.2379 175.004 63.7782 180.97 52.0628C186.936 40.3473 196.916 31.152 209.099 26.145C221.282 21.138 234.861 20.651 247.374 24.7722C259.886 28.8934 270.503 37.3499 277.297 48.6076C283.953 45.5998 291.259 44.305 298.546 44.842C305.833 45.3789 312.869 47.7304 319.008 51.6811C325.148 55.6318 330.195 61.0553 333.688 67.455C337.18 73.8546 339.007 81.0258 339 88.3117C339 88.8706 339 89.476 339 90H176.581Z" fill="#FCA883"/>
<path d="M392.451 133.45C389.47 121.251 390.951 108.385 396.626 97.1862C402.301 85.9876 411.794 77.198 423.382 72.4119C434.971 67.6258 447.888 67.1602 459.79 71.0996C471.692 75.039 481.791 83.1224 488.254 93.8835C494.585 91.0083 501.534 89.7707 508.466 90.2839C515.398 90.7972 522.09 93.045 527.93 96.8214C533.77 100.598 538.571 105.782 541.894 111.899C545.216 118.017 546.954 124.871 546.947 131.836C546.947 132.37 546.947 132.949 546.947 133.45H392.451Z" fill="#FCA883"/>
<path d="M796.814 635.962H972.08V458.965C972.032 438.032 965.519 417.975 953.964 403.173C942.41 388.371 926.752 380.028 910.411 379.967C907.089 379.969 903.773 380.314 900.494 380.997V177.311C900.494 162.97 896.047 149.217 888.132 139.075C880.217 128.934 869.481 123.235 858.286 123.233C847.09 123.233 836.352 128.93 828.435 139.072C820.518 149.214 816.07 162.968 816.07 177.311V220.911C809.719 218.139 803.054 216.723 796.344 216.722C780.001 216.784 764.342 225.128 752.787 239.932C741.232 254.736 734.72 274.796 734.674 295.73V440.916H707.815C696.652 440.96 685.955 446.66 678.061 456.772C670.167 466.884 665.717 480.587 665.683 494.887V620.586C665.684 625.794 666.277 630.974 667.443 635.962" fill="#FC844F"/>
<path d="M859.609 534.755C960.327 534.755 960.327 489.657 960.327 421.469" stroke="#FEC48F" stroke-width="5" stroke-linecap="round" stroke-linejoin="round"/>
<path d="M858.793 438.445L777.99 350.297" stroke="#FEC48F" stroke-width="5" stroke-linecap="round" stroke-linejoin="round"/>
<path d="M860.425 330.218L779.623 242.07" stroke="#FEC48F" stroke-width="5" stroke-linecap="round" stroke-linejoin="round"/>
<path d="M858.793 597.765L777.99 509.617" stroke="#FEC48F" stroke-width="5" stroke-linecap="round" stroke-linejoin="round"/>
<path d="M860.381 634.669L858.793 126.335" stroke="#FEC48F" stroke-width="5" stroke-linecap="round" stroke-linejoin="round"/>
<defs>
<filter id="filter0_b" x="326.695" y="251.461" width="355.617" height="37.1412" filterUnits="userSpaceOnUse" color-interpolation-filters="sRGB">
<feFlood flood-opacity="0" result="BackgroundImageFix"/>
<feGaussianBlur in="BackgroundImage" stdDeviation="2"/>
<feComposite in2="SourceAlpha" operator="in" result="effect1_backgroundBlur"/>
<feBlend mode="normal" in="SourceGraphic" in2="effect1_backgroundBlur" result="shape"/>
</filter>
<linearGradient id="paint0_linear" x1="493.221" y1="110.999" x2="493.221" y2="528.723" gradientUnits="userSpaceOnUse">
<stop stop-color="#FC7031"/>
<stop offset="0.0001" stop-color="#FC8C5A" stop-opacity="0.802083"/>
<stop offset="1" stop-color="white" stop-opacity="0"/>
</linearGradient>
</defs>
</svg>
